<svg width="23" height="18" viewBox="0 0 23 18" fill="none" xmlns="http://www.w3.org/2000/svg">
<path fill-rule="evenodd" clip-rule="evenodd" d="M6.16724 0.944757L12.974 8.50779C13.2326 8.79368 13.2326 9.23233 12.974 9.51973L6.16724 17.0828C6.02203 17.2401 5.81934 17.3323 5.60455 17.3323H1.06672C0.768741 17.3323 0.497984 17.1569 0.375463 16.8831C0.252942 16.6108 0.30437 16.2917 0.504035 16.0693L6.85547 9.013L0.504035 1.95518C0.30437 1.73434 0.254454 1.41518 0.375463 1.1414C0.497984 0.869127 0.768741 0.693665 1.06672 0.693665H5.60455C5.81934 0.693665 6.02203 0.784421 6.16724 0.944757ZM15.9991 0.944757L22.8059 8.50779C23.0645 8.79368 23.0645 9.23233 22.8059 9.51973L15.9991 17.0828C15.8539 17.2401 15.6512 17.3323 15.4365 17.3323H10.8986C10.6006 17.3323 10.3299 17.1569 10.2074 16.8831C10.0848 16.6108 10.1363 16.2917 10.3359 16.0693L16.6874 9.013L10.3359 1.95518C10.1363 1.73434 10.0864 1.41518 10.2074 1.1414C10.3299 0.869127 10.6006 0.693665 10.8986 0.693665H15.4365C15.6512 0.693665 15.8539 0.784421 15.9991 0.944757Z" fill="white"/>
</svg>
