<svg width="30" height="27" viewBox="0 0 30 27" fill="none" xmlns="http://www.w3.org/2000/svg">
<path d="M13.6835 26.9997C13.5927 26.9997 13.5029 26.9805 13.4198 26.9434C13.3367 26.9062 13.262 26.8519 13.2004 26.7838L0.174789 12.3883C0.0879576 12.2923 0.0303935 12.1726 0.00914248 12.0437C-0.0121086 11.9148 0.00387505 11.7824 0.0551373 11.6627C0.1064 11.5429 0.190717 11.441 0.297769 11.3695C0.404822 11.298 0.529966 11.2599 0.657886 11.2599H6.92768C7.02181 11.2599 7.11485 11.2805 7.20052 11.3204C7.28618 11.3603 7.36248 11.4184 7.42426 11.491L11.7775 16.6078C12.2479 15.5803 13.1587 13.8695 14.7568 11.7849C17.1195 8.70299 21.5141 4.1705 29.0329 0.0788784C29.1782 -0.000187237 29.3473 -0.0207079 29.5067 0.0213686C29.6661 0.0634452 29.8042 0.16506 29.8939 0.306149C29.9836 0.447237 30.0182 0.617543 29.9909 0.783438C29.9637 0.949333 29.8765 1.09876 29.7467 1.20221C29.718 1.22513 26.819 3.55755 23.4827 7.82978C20.4121 11.7613 16.3304 18.1899 14.3219 26.4892C14.2866 26.635 14.2045 26.7645 14.0888 26.8571C13.973 26.9497 13.8303 27 13.6833 27L13.6835 26.9997Z" fill="#FE4627"/>
</svg>
