<svg width="21" height="20" viewBox="0 0 21 20" fill="none" xmlns="http://www.w3.org/2000/svg">
<path d="M2.1334 9.13746C1.72943 9.13859 1.33405 9.25407 0.992975 9.47054C0.651905 9.68701 0.379092 9.99562 0.206099 10.3607C0.0331051 10.7257 -0.0329994 11.1323 0.0154329 11.5333C0.0638652 11.9344 0.224855 12.3135 0.479777 12.6269L5.91412 19.284C6.10788 19.5246 6.35625 19.7154 6.6386 19.8408C6.92095 19.9661 7.22913 20.0223 7.53754 20.0046C8.19715 19.9691 8.79266 19.6163 9.17234 19.0361L20.4609 0.855991C20.4627 0.852975 20.4646 0.849959 20.4666 0.846988C20.5725 0.684359 20.5382 0.36207 20.3196 0.159604C20.2595 0.104005 20.1887 0.0612888 20.1115 0.0340871C20.0343 0.0068855 19.9524 -0.00422598 19.8707 0.00143727C19.7891 0.00710051 19.7095 0.0294186 19.6368 0.0670167C19.5641 0.104615 19.4998 0.156697 19.448 0.220056C19.444 0.225037 19.4398 0.229944 19.4355 0.234775L8.0509 13.0977C8.00758 13.1466 7.95497 13.1865 7.89612 13.2149C7.83727 13.2434 7.77335 13.2598 7.70808 13.2634C7.64281 13.2669 7.57749 13.2574 7.51591 13.2355C7.45434 13.2136 7.39773 13.1796 7.34938 13.1356L3.57105 9.69732C3.17863 9.3376 2.66574 9.13786 2.1334 9.13746Z" fill="white"/>
</svg>
