<svg width="1140" height="119" viewBox="0 0 1140 119" fill="none" xmlns="http://www.w3.org/2000/svg">
<g clip-path="url(#clip0_32_208)">
<path d="M570 118.343H-1L-0.913671 88.7382C7.13412 84.2289 10.5393 77.7691 12.8894 70.3919C15.767 61.3829 18.2706 57.3467 25.6757 59.4517C19.8437 60.7649 17.9253 82.5777 22.424 86.5367C26.9227 90.4956 34.6156 88.912 38.2222 84.113C41.8288 79.314 41.7521 72.4293 39.2486 66.964C37.8769 63.961 35.8146 61.1801 35.335 57.9164C34.3853 51.389 39.8145 45.943 44.1022 40.9412C48.3898 35.9491 49.9821 22.846 45.493 18.0276C51.6608 22.0735 58.452 35.9877 55.2482 42.8145C54.078 45.3154 51.843 47.1693 50.5481 49.6123C46.5769 57.115 52.7351 65.8053 58.4904 72.0238C62.9027 76.7841 69.7803 81.9018 75.1039 78.2036C80.7345 74.2929 77.7705 65.6798 76.8497 58.853C75.6219 49.6992 80.2069 38.421 87.6888 33.062C85.5305 38.6141 81.9335 47.7873 84.1685 55.5893C88.0341 69.0594 97.1946 60.34 94.1539 48.7529C100.657 53.9864 98.7101 63.6327 99.9091 71.9272C101.099 80.2217 109.425 89.1631 115.976 83.9971C123.717 77.8849 116.609 67.6593 118.422 57.9164C120.177 48.5115 130.604 52.3739 129.885 31.6136C133.952 39.8501 131.889 48.0094 132.283 57.2019C132.762 68.5476 142.613 71.2416 145.587 73.4142C150.277 76.8324 152.522 84.8469 158.296 84.3254C165.04 83.7171 164.109 73.3659 160.752 67.4565C157.385 61.547 155.419 49.1874 161.769 46.8314C159.985 52.7891 166.181 66.3171 171.601 53.3491C173.999 47.6135 173.625 42.4765 172.08 36.4512C170.526 30.4259 171.687 22.6818 175.457 17.7476C173.999 26.5539 174.171 30.8025 178.315 38.141C187.188 53.8319 185.193 66.375 186.871 68.0648C188.55 69.7546 193.653 62.9954 190.536 51.8911C201.327 67.0992 191.015 69.5132 196.032 80.4824C201.95 86.9422 214.679 83.6012 216.712 75.0557C218.094 69.2525 215.168 63.4106 213.902 57.5784C212.636 51.7462 214.286 43.9925 220.089 42.7855C219.072 47.7101 220.875 54.5948 225.873 54.5465C229.422 54.5078 231.408 52.3063 233.211 49.2357C236.328 43.9249 237.124 39.4349 236.328 35.9588C233.451 23.406 238.007 16.6468 243.685 14.0784C236.328 26.9497 244.482 28.4754 243.359 40.7674C241.652 59.3841 249.182 70.4498 253.153 71.5506C257.124 72.6514 260.98 59.8186 258.429 53.5712C266.822 57.9067 263.81 72.3327 266.064 76.5138C268.318 80.6851 278.131 79.9127 280.212 74.3412C282.62 67.891 276.155 62.7927 277.066 55.9562C277.584 52.1325 281.114 49.593 283.464 46.5417C285.814 43.4904 286.917 38.8652 284.279 34.52C290.869 38.7976 289.075 44.176 284.999 54.7975C282.562 61.1415 292.001 68.5959 294.351 68.7987C297.229 69.0401 302.984 58.6599 301.967 51.8331C301.363 47.7776 298.38 43.2876 297.392 37.2623C296.797 33.651 298.034 30.5031 298.188 24.2268C299.79 32.1157 301.037 33.6896 302.744 33.3227C305.133 32.8013 304.768 27.3939 303.953 22.9425C302.831 16.8303 305.583 10.9981 305.382 9.90699C306.898 10.8919 303.857 17.1586 307.061 22.9715C308.586 25.7428 309.497 28.9968 309.104 31.8743C308.452 36.5574 306.917 41.3082 308.02 45.9044C309.113 50.5006 314.466 54.4789 318.456 51.9973C322.312 49.6026 321.641 43.9056 321.017 39.3866C320.394 34.8676 323.166 25.202 327.684 24.8737C325.362 27.3939 324.326 35.9781 327.444 39.8404C329.593 42.5055 332.72 46.1168 334.878 49.7378C338.734 56.2073 339.031 58.7854 340.863 66.1047C342.695 73.4142 350.561 80.859 356.853 76.7648C361.822 73.5301 361.141 66.2012 360.575 60.2724C360.019 54.3437 361.247 49.0233 367.683 45.9816C363.884 54.334 364.796 62.8023 371.558 66.1626C377.035 68.8856 381.697 62.5319 381.256 56.4004C380.815 50.2689 377.323 44.5815 377.4 38.4307C377.486 31.0149 383.5 24.1109 390.8 23.0777C384.632 27.0753 385.217 36.4512 388.21 43.1911C391.203 49.9309 395.941 56.3425 395.817 63.7196C395.682 71.9465 390.349 82.5005 397.265 86.8746C404.171 91.2391 411.73 81.0231 411.298 72.8252C410.867 64.6273 407.327 55.7631 411.442 48.6756C411.298 54.6334 413.562 62.9182 419.423 62.0492C424.056 61.3539 425.389 54.8748 423.528 50.5392C421.667 46.2134 417.946 42.8917 416.152 38.5369C414.358 34.1821 415.912 27.6933 420.574 27.2105C417.073 29.8852 420.085 36.4416 424.487 36.5864C428.89 36.7312 433.188 31.208 433.658 26.8049C434.128 22.4018 431.557 19.2346 429.725 15.2178C428.315 12.1085 428.027 2.32706 430.54 0.0192871C430.933 8.13995 436.574 13.2576 439.653 22.7108C442.242 30.6673 442.645 42.9979 440.103 49.8826C445.734 51.698 451.46 43.7704 448.017 38.9328C453.293 43.249 454.281 53.3588 452.506 57.5012C450.837 61.4119 447.518 64.7721 447.317 69.0304C447.077 74.1191 452.036 78.5705 457.101 78.4546C462.165 78.3388 466.664 74.3315 468.189 69.4746C470.04 63.5844 468.055 57.1922 468.592 51.0317C469.12 44.8712 473.705 35.7367 480.419 36.9437C475.786 44.9871 477.177 49.5254 478.52 53.9768C479.863 58.4282 485.599 61.7208 489.282 58.8917C494.855 54.6141 488.371 45.6726 489.723 38.7397C491.249 30.9183 500.323 32.5985 498.884 12.8038C504.639 23.9081 500.486 33.3034 499.124 42.4958C497.445 53.8416 506.673 61.9236 509.733 60.7842C512.793 59.6352 511.939 51.1283 510.759 46.3775C516.514 49.593 516.706 57.6171 517.224 64.2314C517.732 70.8361 521.493 79.0533 528.025 78.1939C535.229 77.2476 535.948 67.1185 534.874 59.8862C533.799 52.6539 536.216 39.5411 543.478 39.377C537.751 43.2104 536.629 59.6738 543.718 65.448C547.075 68.1807 551.228 62.7154 549.156 49.1971C558.106 61.7498 548.84 71.2416 553.789 72.3714C555.804 72.8252 559.381 73.0183 558.106 62.7154C558.077 62.5126 562.259 68.9918 560.504 75.104C559.669 78.0201 558.816 80.4051 558.748 83.7944C558.566 92.282 564.82 93.9331 569.981 88.7865V118.392L570 118.343Z" fill="url(#paint0_linear_32_208)"/>
<path d="M-1 118.353V96.0671C-1 96.0671 3.37401 92.562 7.29719 89.0665C12.8894 84.0744 15.767 73.617 15.767 73.617C15.767 73.617 12.1028 99.128 31.8338 93.8945C50.6152 88.9024 49.5793 75.0654 46.222 69.996C42.8648 64.9266 39.7473 60.3401 41.1862 55.2707C42.625 50.2013 46.9414 44.6491 46.9414 44.6491C46.9414 44.6491 43.0279 52.6539 45.6657 59.1717C48.3035 65.6895 60.85 89.5397 74.5188 83.2633C88.1876 76.9869 80.1973 65.6122 79.5547 59.1234C78.7585 51.08 80.5139 50.1917 80.5139 50.1917C80.5139 50.1917 81.8472 68.8663 89.6264 69.0208C93.7798 69.098 95.3817 62.503 95.3817 62.503C95.3817 62.503 95.7558 94.7732 114.566 91.9537C129.587 89.7038 122.719 71.9176 122.959 65.6412C123.199 59.3648 127.515 54.7782 127.515 54.7782C127.515 54.7782 124.877 64.4342 132.072 70.2278C139.266 76.0213 144.043 79.2175 149.337 85.9187C156.129 94.5318 163.246 90.5053 166.363 85.6773C169.481 80.8493 169.721 74.0901 166.603 68.538C163.486 62.9858 163.486 61.296 163.486 61.296C163.486 61.296 169.721 67.0896 173.078 61.5374C176.435 55.9852 177.155 48.2605 177.155 48.2605C177.155 48.2605 181.471 57.1922 181.231 62.7444C180.991 68.2966 183.389 76.7455 186.507 75.7799C189.624 74.8143 191.063 70.7106 191.063 70.7106C191.063 70.7106 185.308 85.6773 196.579 88.0913C207.849 90.5053 215.715 86.6236 220.319 78.4353C223.753 72.3231 220.636 67.2537 219.437 62.1844C218.238 57.115 218.161 52.6056 218.161 52.6056C218.161 52.6056 222.238 61.5374 228.712 58.6406C235.187 55.7438 239.024 45.6051 239.024 45.6051C239.024 45.6051 236.933 68.9146 248.693 76.1758C255.724 80.521 260.836 70.7009 260.836 70.7009C260.836 70.7009 260.117 83.9778 268.27 85.4262C276.423 86.8746 285.536 80.1155 285.056 74.0805C284.577 68.0455 282.419 62.4933 282.419 62.4933C282.419 62.4933 288.423 73.3563 294.648 73.5977C301.919 73.8777 306.639 61.7691 305.919 55.9756C305.2 50.182 300.883 42.2158 301.123 39.0777C301.123 39.0777 307.559 58.4089 316.471 58.1482C321.909 57.984 323.904 53.3202 324.384 49.9406C324.864 46.561 324.624 44.3884 324.624 44.3884C324.624 44.3884 332.058 48.975 334.456 58.8724C336.854 68.7697 341.199 84.0165 352.441 83.0123C364.105 81.9694 366.35 71.9079 365.151 66.3557C365.151 66.3557 370.426 75.2875 377.62 71.9079C384.814 68.5283 386.531 65.1294 386.013 58.8724C385.63 54.2375 384.507 51.2635 383.04 46.9183C381.438 42.1676 380.93 37.523 382.292 36.1905C383.126 43.4325 386.925 48.9267 389.783 55.5797C392.603 62.1361 388.882 67.3213 387.443 75.2875C386.004 83.2537 388.882 93.3924 399.673 93.151C410.464 92.9096 415.979 85.4262 416.219 79.3913C416.459 73.3563 413.821 64.6659 413.821 64.6659C413.821 64.6659 421.255 68.0455 425.092 64.9073C428.929 61.7691 430.847 55.4928 428.689 51.6304C426.531 47.768 422.454 40.7674 422.454 40.7674C422.454 40.7674 427.365 44.8133 430.847 43.1814C434.319 41.5496 436.363 34.2497 437.082 29.4217C437.082 29.4217 439 48.3667 434.684 56.8156C434.684 56.8156 442.952 58.264 446.07 54.1603C446.07 54.1603 433.964 66.1047 442.118 76.002C450.271 85.8994 460.822 85.1752 467.537 81.3128C474.251 77.4504 475.211 69.9671 474.012 62.7251C472.813 55.4831 474.251 51.3793 474.251 51.3793C474.251 51.3793 477.82 66.9447 486.836 65.6219C492.592 64.7818 495.824 59.5869 495.028 54.4403C494.213 49.1971 493.647 47.7004 493.906 43.1138C494.174 38.2859 494.99 36.4223 494.99 36.4223C494.99 36.4223 494.04 61.6822 508.534 64.4245C512.371 65.1487 513.809 60.8036 513.809 60.8036C513.809 60.8036 514.049 84.702 526.759 82.7709C539.468 80.8397 538.749 63.9417 538.749 63.9417C538.749 63.9417 542.749 77.4601 549.78 66.5971C549.78 66.5971 545.703 75.7703 550.259 77.4601C554.816 79.1499 555.986 76.3303 555.986 77.0545C555.986 77.7787 547.094 95.3526 556.974 97.0037C565.607 98.4521 570.048 96.0381 570.048 96.0381V118.324H-1V118.353Z" fill="url(#paint1_linear_32_208)"/>
<path d="M-1.00008 118.353V104.033C-1.00008 104.033 5.69522 104.516 6.89424 98.4811C8.09325 92.4461 12.1699 87.3767 12.1699 87.3767C12.1699 87.3767 12.6495 107.413 23.9203 105.482C35.191 103.55 42.8647 100.171 42.6249 92.6875C42.3851 85.2042 50.0588 76.0117 50.0588 76.0117C50.0588 76.0117 48.1404 85.4455 50.0588 90.9977C51.9772 96.5499 63.9674 107.413 66.6052 101.136C69.243 94.8601 70.6819 91.2391 74.7585 87.3767C74.7585 87.3767 69.7226 98.7225 76.9167 94.8601C84.1108 90.9977 90.1059 90.4087 87.4681 82.2591C84.8302 74.1095 89.1467 70.9713 89.1467 70.9713C89.1467 70.9713 87.7079 79.5458 90.8253 82.2591C93.9428 84.9724 91.3049 89.1534 95.3816 94.667C99.4582 100.181 110.729 104.526 112.647 98.2494C114.566 91.973 123.918 97.5252 125.357 90.5246C126.796 83.524 126.163 78.5898 129.673 74.8626C129.673 74.8626 126.796 89.0762 132.311 88.8348C137.827 88.5934 133.75 84.702 133.75 81.3321C133.75 77.9622 135.199 76.4655 135.199 76.4655C135.199 76.4655 135.055 81.2742 137.107 84.2482C139.266 87.3864 148.378 101.146 160.848 95.8354C173.318 90.5246 176.195 84.9724 173.797 78.9374C171.399 72.9025 173.318 68.5573 174.277 64.9363C175.236 61.3153 175.716 53.5906 175.716 53.5906C175.716 53.5906 177.874 60.1083 176.915 63.9707C175.955 67.8331 174.277 72.6611 176.915 77.489C179.552 82.317 183.15 94.1456 192.262 93.6628C201.375 93.18 200.895 110.078 208.089 105.733C215.283 101.388 207.13 97.5252 213.605 91.4902C220.079 85.4552 228.952 79.1788 225.595 71.9369C222.237 64.6949 226.554 60.5911 226.554 60.5911C226.554 60.5911 225.355 68.0745 228.472 70.7299C231.59 73.3853 227.993 78.696 230.151 81.11C232.309 83.524 236.626 81.5928 234.947 76.282C233.268 70.9713 231.59 70.0057 232.309 67.3503C233.029 64.6949 235.906 54.5561 235.906 54.5561C235.906 54.5561 233.988 64.4535 237.105 69.2815C240.223 74.1095 242.141 78.4546 245.259 87.145C248.376 95.8354 257.728 109.836 257.968 100.422C258.208 91.0074 256.05 91.0074 255.33 85.6966C254.611 80.3858 258.688 77.0062 258.688 77.0062C258.688 77.0062 258.189 86.6912 261.805 88.8348C265.479 91.0074 270.754 93.1027 274.908 97.2838C279.857 102.266 288.174 101.146 286.735 95.3526C285.296 89.559 289.852 89.8004 289.852 84.4896C289.852 79.1788 288.893 75.5579 288.893 75.5579C288.893 75.5579 292.73 79.4202 293.689 83.7654C294.648 88.1106 295.128 98.5197 298.245 95.6229C301.363 92.7261 301.603 89.559 303.761 81.3514C305.919 73.1439 309.996 72.9025 309.996 66.8675C309.996 60.8325 308.077 55.7631 308.077 55.7631C308.077 55.7631 315.032 67.5917 315.751 72.9025C316.47 78.2132 317.19 85.6966 321.267 81.8342C325.343 77.9718 320.547 73.3853 321.506 67.5917C322.466 61.7981 327.262 61.0739 326.542 55.7631C326.542 55.7631 329.103 60.5911 326.542 67.8331C324.729 72.9604 334.695 76.7648 335.175 84.9724C335.655 93.18 351.002 109.354 357.717 99.6977C364.431 90.0418 360.594 87.8692 364.191 83.524C367.788 79.1788 372.824 76.7648 372.824 76.7648C372.824 76.7648 366.589 83.0412 371.385 84.4896C376.181 85.938 381.697 80.3858 381.937 76.0407C382.177 71.6955 380.978 68.0745 380.978 68.0745C380.978 68.0745 386.013 71.6955 384.814 77.7304C383.615 83.7654 382.157 92.5427 384.575 95.594C388.095 100.016 386.809 88.7575 386.809 88.7575C386.809 88.7575 391.529 93.4214 394.886 99.9391C398.243 106.457 411.672 110.078 412.152 101.629C412.632 93.18 420.545 95.3526 421.744 86.4208C422.943 77.489 420.065 70.4885 420.065 70.4885C420.065 70.4885 422.463 70.7299 424.142 74.3509C424.142 74.3509 428.219 71.6955 429.418 66.8675C430.617 62.0395 433.015 52.8664 430.137 48.7626C430.137 48.7626 436.132 54.0733 434.214 62.0395C432.295 70.0057 433.974 85.938 442.367 88.8348C450.76 91.7316 441.168 84.9724 441.168 78.9374C441.168 72.9025 442.847 69.7643 442.847 69.7643C442.847 69.7643 441.408 79.4202 446.923 83.524C452.439 87.6278 453.878 92.4558 461.551 95.8354C469.225 99.2149 474.213 95.2463 474.741 86.9809C475.22 79.4202 480.832 76.8711 480.016 70.7299C479.374 65.9019 475.46 61.7981 475.46 61.7981C475.46 61.7981 484.016 67.0316 484.016 71.8596C484.016 76.6876 481.215 86.4208 487.45 85.4552C493.685 84.4896 496.802 81.8342 494.404 74.3509C492.006 66.8675 494.884 65.4191 495.364 61.3153C495.843 57.2115 495.843 52.8664 495.843 52.8664C495.843 52.8664 499.44 59.1427 498.241 63.2465C497.042 67.3503 496.323 70.7299 498.481 74.5923C500.639 78.4546 500.399 87.145 503.996 85.2138C507.594 83.2826 506.395 80.6272 507.114 76.282C507.833 71.9369 511.43 70.4885 511.43 70.4885C511.43 70.4885 507.114 73.1439 510.711 77.7304C514.308 82.317 523.181 82.5584 522.701 88.5934C522.221 94.6284 528.217 105.733 534.451 100.422C540.686 95.1112 539.008 86.1794 540.447 81.8342C541.885 77.489 546.202 76.0407 545.482 76.7648C544.763 77.489 539.487 82.0756 543.804 88.1106C548.12 94.1456 549.137 92.5716 551.957 98.2494C554.518 103.396 562.249 98.6839 564.743 101.31C568.264 105.009 570.067 104.043 570.067 104.043V118.363C570.067 118.363 -1.55643 117.793 -1.00008 118.353Z" fill="url(#paint2_linear_32_208)"/>
<path d="M568.494 105.791C566.748 105.887 566.892 108.359 567.554 109.991C568.599 112.559 566.585 114.954 564.878 114.645C561.53 114.037 559.113 111.179 557.06 108.446C555.948 106.949 554.394 105.26 552.581 105.694C551.334 105.993 550.509 107.249 549.281 107.616C546.787 108.378 544.897 105.289 544.351 102.72C543.804 100.152 543.056 96.9265 540.495 96.4147C541.674 98.1141 540.773 100.277 539.305 101.88C538.854 102.372 538.356 102.807 537.847 103.164C535.641 104.709 532.888 106.08 532.265 108.707C531.679 111.179 532.984 114.578 530.787 115.842C526.039 117.281 520.418 114.162 519.095 109.354C518.586 107.5 518.644 105.53 518.126 103.676C517.253 100.499 514.816 98.0465 512.85 95.4105C510.884 92.7744 509.282 89.3465 510.414 86.2566C508.668 89.6459 510.951 93.7979 510.279 97.5541C509.339 102.855 503.047 105.337 497.704 105.24C495.795 105.202 493.8 104.931 492.246 103.811C489.445 101.793 489.014 97.7086 489.676 94.3C490.328 90.8818 491.786 87.5988 491.795 84.113C491.795 80.6369 489.637 76.7358 486.194 76.5427C488.975 81.1872 483.805 86.4594 482.51 91.7315C482.05 93.5758 482.088 95.536 481.57 97.361C481.043 99.1956 479.709 101.021 477.829 101.233C475.949 101.445 474.06 99.1184 475.182 97.5831C473.167 99.6301 475.45 102.981 475.374 105.897C475.038 105.81 474.702 105.713 474.376 105.569C471.575 104.333 471.921 100.441 470.347 97.8051C466.021 90.5149 474.76 84.4896 473.551 81.6604C471.364 84.4992 463 90.6694 464.918 97.1099C465.465 97.7279 465.657 98.3266 465.599 98.9059C464.352 96.9554 462.098 95.6712 460.151 94.2904C457.791 92.6102 455.518 89.81 456.496 87.0677C453.379 89.501 455.815 94.358 456.4 98.2783C456.794 100.924 455.959 103.801 454.213 105.752C451.633 105.646 449.043 104.41 447.355 102.401C444.727 99.2825 444.132 94.7442 445.187 90.7949C442.444 89.839 440.295 93.6048 440.602 96.5112C440.909 99.4177 442.319 102.401 441.322 105.153C439.95 108.9 435.144 109.75 431.173 109.856C430.55 109.875 429.849 109.856 429.389 109.431C428.641 108.736 429.015 107.519 429.149 106.496C429.619 102.749 425.888 99.7363 422.233 98.877C418.579 98.0176 414.684 98.4618 411.097 97.3513C407.509 96.2505 404.143 92.5909 405.351 89.0182C402.33 89.6362 401.716 93.7496 402.272 96.8009C402.828 99.8522 403.711 103.454 401.601 105.723C399.337 108.156 395.145 107.113 392.709 104.854C390.282 102.594 388.824 99.4467 386.455 97.1099C382.771 93.4793 376.45 90.6501 377.304 85.5324C374.695 88.0333 378.157 91.973 379.654 95.2656C380.603 97.3513 380.671 99.8329 379.836 101.977C378.858 104.497 376.383 106.563 373.697 106.37C371.021 106.177 368.738 103.116 369.832 100.644C368.086 100.741 367.856 103.425 368.882 104.844C369.918 106.264 371.616 107.2 372.268 108.832C373.851 112.811 366.273 109.334 365.63 107.886C363.203 102.382 360.642 98.5487 361.544 95.9222C362.244 93.8752 363.961 92.3109 364.7 90.2735C365.947 86.836 363.606 82.5584 360.057 81.7763C362.58 83.8813 363.309 87.8692 361.697 90.737C360.777 92.3688 359.213 93.6434 358.647 95.4394C358.158 96.994 357.937 98.7321 358.398 100.296C359.673 104.632 359.357 109.721 358.398 108.436C357.275 106.94 355.722 105.25 353.918 105.684C352.671 105.984 351.846 107.239 350.618 107.606C348.125 108.369 346.235 105.269 345.698 102.701C345.151 100.132 344.393 96.9168 341.842 96.405C343.376 98.6162 341.391 101.61 339.194 103.155C338.149 103.888 336.988 104.584 335.981 105.385C335.693 104.777 335.415 104.159 335.242 103.512C334.561 100.924 335.741 98.2493 336.048 95.5939C336.384 92.6971 335.626 89.6845 333.967 87.2898C334.571 89.2403 335.175 91.3357 334.6 93.2862C334.024 95.2463 331.732 96.8202 329.938 95.8643C327.818 94.7346 328.24 91.635 328.71 89.2693C329.305 86.3049 329.449 83.0412 327.914 80.4341C326.974 78.8505 325.487 77.6435 324.547 76.0599C323.866 74.9205 323.588 73.4045 324.01 72.2169C322.609 74.5439 322.178 77.46 322.936 80.0768C323.521 82.0852 324.729 83.8716 325.295 85.8897C325.832 87.8209 325.746 89.8873 325.439 91.8764C324.71 96.6078 322.696 101.127 319.741 104.873C319.674 104.468 319.598 104.053 319.482 103.657C318.6 100.48 316.164 98.0369 314.197 95.3912C312.231 92.7551 310.629 89.3272 311.761 86.2373C310.015 89.6265 312.298 93.7786 311.627 97.5444C311.157 100.209 305.747 106.833 302.706 103.647C302.207 103.116 302.092 102.257 302.437 101.61C302.955 100.654 304.298 100.287 304.615 99.2439C304.816 98.5873 304.528 97.8824 304.241 97.2548C303.847 96.3857 303.464 95.5263 303.07 94.6573C303.368 95.6615 303.233 96.7816 302.715 97.6893C301.958 98.0465 301.037 97.4672 300.711 96.6947C300.385 95.9222 300.5 95.0435 300.605 94.2131C300.691 93.6048 300.778 92.9868 301.114 92.4751C301.401 92.0405 301.852 91.7412 302.197 91.355C303.061 90.3894 303.233 88.941 302.888 87.6857C302.543 86.4304 301.737 85.3586 300.826 84.4413C301.756 86.7587 300.385 89.3948 298.62 91.1522C297.622 92.1468 296.404 93.1317 296.25 94.5318C296.087 96.0574 297.277 97.4189 297.449 98.9445C297.66 100.856 296.289 102.537 295.003 103.956C294.677 103.985 294.351 104.033 294.035 104.082C293.881 103.995 293.737 103.908 293.593 103.801C290.783 101.774 290.361 97.6989 291.013 94.2904C291.665 90.8722 293.133 87.5891 293.142 84.113C293.142 80.6369 290.984 76.7359 287.531 76.5331C290.313 81.1776 285.152 86.4594 283.848 91.7219C283.387 93.5758 283.426 95.5263 282.908 97.361C282.38 99.1956 281.056 101.011 279.176 101.223C277.296 101.436 275.407 99.1087 276.529 97.5734C274.399 99.7363 277.047 103.328 276.682 106.341C276.251 109.904 270.486 111.063 268.731 107.934C267.455 105.655 268.433 102.72 267.618 100.238C266.707 97.4768 263.877 95.9609 261.508 94.2904C259.138 92.6199 256.875 89.81 257.843 87.0774C254.726 89.5107 257.172 94.358 257.748 98.2783C258.323 102.15 256.27 106.515 252.587 107.76C251.714 108.05 250.793 108.108 249.892 107.973C249.911 107.77 249.92 107.558 249.93 107.355C249.968 105.54 249.498 103.753 249.047 101.996C248.625 102.537 247.829 102.759 247.196 102.498C245.47 100.181 246.218 96.9265 247.014 94.1359C247.81 91.355 248.482 88.0526 246.659 85.8125C246.266 85.32 245.767 84.9241 245.326 84.4703C243.973 83.0702 243.206 81.2355 242.458 79.4299C241.431 82.7901 244.635 86.0538 244.654 89.5686C244.654 90.6018 244.386 91.6157 244.098 92.6006C243.551 94.4642 242.937 96.2988 242.247 98.1141C241.729 99.4756 241.163 100.837 240.827 102.257C240.53 103.512 240.424 104.806 240.491 106.1C239.781 105.993 239.081 105.858 238.419 105.569C235.619 104.333 234.554 100.876 234.391 97.8051C234.266 95.3912 234.688 92.7068 233.988 90.3701C233.393 88.3616 231.667 86.9132 231.024 84.9627C230.372 82.9833 231.417 80.7044 230.64 78.7733C230.199 77.6725 229.201 76.8034 228.981 75.6351C228.866 75.0074 228.981 74.3605 229.105 73.7232C229.48 71.7727 229.863 69.8318 230.237 67.891C228.693 69.5904 227.763 71.8499 227.657 74.1481C227.571 76.1758 228.098 78.1842 228.041 80.212C227.983 81.9983 227.456 83.775 226.525 85.291C225.662 86.7008 224.453 87.9174 223.868 89.4721C222.544 92.9772 225.508 94.6476 225.978 97.641C226.41 100.354 224.731 103.493 222.41 104.806C218.861 106.804 214.036 105.53 211.408 102.401C208.78 99.2825 208.185 94.7442 209.24 90.7949C206.497 89.839 204.348 93.6048 204.655 96.5112C204.962 99.4177 206.372 102.401 205.375 105.153C204.003 108.9 199.197 109.75 195.226 109.856C194.603 109.875 193.902 109.856 193.442 109.431C192.694 108.736 193.068 107.519 193.202 106.496C193.672 102.749 189.941 99.7363 186.286 98.877C182.632 98.0176 178.737 98.4618 175.15 97.3513C171.562 96.2505 168.195 92.5909 169.404 89.0182C166.383 89.6362 165.769 93.7496 166.325 96.8009C166.881 99.8522 167.764 103.454 165.654 105.723C163.39 108.156 159.198 107.113 156.762 104.854C154.335 102.594 152.877 99.4467 150.508 97.1099C146.824 93.4793 140.503 90.6501 141.357 85.5324C138.748 88.0333 142.21 91.973 143.707 95.2656C144.656 97.3513 144.724 99.8329 143.889 101.977C142.911 104.497 140.436 106.563 137.75 106.37C135.074 106.177 132.791 103.116 133.884 100.644C132.139 100.741 131.908 103.425 132.935 104.844C133.971 106.264 135.669 107.2 136.321 108.832C137.587 112.009 133.606 115.253 130.268 114.645C126.921 114.037 124.503 111.169 122.46 108.436C121.338 106.94 119.784 105.25 117.981 105.684C116.734 105.984 115.909 107.239 114.681 107.606C112.187 108.369 110.297 105.269 109.76 102.701C109.214 100.132 108.456 96.9168 105.904 96.405C107.439 98.6162 105.453 101.61 103.257 103.155C101.06 104.69 98.2977 106.071 97.6742 108.687C97.0891 111.159 98.3936 114.558 96.197 115.823C91.4489 117.262 85.8375 114.153 84.5042 109.344C83.9958 107.49 84.0534 105.511 83.5354 103.657C82.6529 100.48 80.2165 98.0369 78.2501 95.3912C76.2837 92.7551 74.6819 89.3272 75.8137 86.2373C74.068 89.6265 76.3509 93.7786 75.6794 97.5444C74.7394 102.846 68.447 105.327 63.1042 105.231C61.1953 105.192 59.2002 104.922 57.6558 103.801C54.8453 101.774 54.4233 97.6989 55.0756 94.2904C55.7278 90.8722 57.1954 87.5891 57.205 84.113C57.205 80.6369 55.0468 76.7359 51.5936 76.5331C54.3753 81.1776 49.2148 86.4594 47.9102 91.7219C47.4498 93.5758 47.4882 95.5263 46.9702 97.361C46.4426 99.1956 45.1189 101.011 43.2389 101.223C41.3588 101.436 39.4692 99.1087 40.5914 97.5734C38.462 99.7363 41.1094 103.328 40.7449 106.341C40.3133 109.904 34.5484 111.063 32.7931 107.934C31.5173 105.655 32.4957 102.72 31.6804 100.238C30.7691 97.4768 27.9394 95.9609 25.5702 94.2904C23.2105 92.6102 20.9372 89.81 21.906 87.0774C18.7886 89.5107 21.225 94.358 21.8101 98.2783C22.3856 102.15 20.3329 106.515 16.6495 107.76C12.9661 109.006 11.2012 106.65 9.9638 101.368C5.9447 112.82 -1 110.551 -1 110.551V119H570V110.551C568.561 109.412 567.755 107.471 568.494 105.791Z" fill="url(#paint3_linear_32_208)"/>
<path d="M324.039 72.2362C324.288 71.8113 324.566 71.4058 324.883 71.0292C324.47 71.3478 324.202 71.763 324.039 72.2362Z" fill="url(#paint4_linear_32_208)"/>
<path d="M88.878 36.9051C88.878 36.9051 93.7412 32.164 91.0458 28.514C88.3504 24.8641 92.6765 21.4362 92.6765 21.4362C92.6765 21.4362 92.475 23.9564 93.3767 28.1085C94.2784 32.2605 88.8684 36.9051 88.8684 36.9051H88.878Z" fill="url(#paint5_linear_32_208)"/>
<path d="M243.311 18.6843C243.311 18.6843 248.175 13.9432 245.479 10.2933C242.784 6.64332 247.11 3.21545 247.11 3.21545C247.11 3.21545 246.908 5.73566 247.81 9.88772C248.712 14.0398 243.302 18.6843 243.302 18.6843H243.311Z" fill="url(#paint6_linear_32_208)"/>
<path d="M153.462 50.2303C153.462 50.2303 158.325 45.4796 155.63 41.8393C152.934 38.1893 157.26 34.7615 157.26 34.7615C157.26 34.7615 157.059 37.2817 157.961 41.4337C158.862 45.5858 153.452 50.2303 153.452 50.2303H153.462Z" fill="url(#paint7_linear_32_208)"/>
<path d="M448.391 33.1682C448.391 33.1682 443.528 28.4272 446.223 24.7772C448.918 21.1273 444.592 17.6994 444.592 17.6994C444.592 17.6994 444.794 20.2196 443.892 24.3717C442.99 28.5237 448.4 33.1682 448.4 33.1682H448.391Z" fill="url(#paint8_linear_32_208)"/>
<path d="M226.362 44.0312C226.362 44.0312 221.499 39.2901 224.194 35.6401C226.89 31.9902 222.564 28.5623 222.564 28.5623C222.564 28.5623 222.765 31.0825 221.863 35.2346C220.962 39.3866 226.372 44.0312 226.372 44.0312H226.362Z" fill="url(#paint9_linear_32_208)"/>
<path d="M284.231 37.9093C284.231 37.9093 279.368 33.1683 282.064 29.5183C284.759 25.8684 280.433 22.4405 280.433 22.4405C280.433 22.4405 280.634 24.9607 279.733 29.1128C278.831 33.2648 284.241 37.9093 284.241 37.9093H284.231Z" fill="url(#paint10_linear_32_208)"/>
<path d="M101.991 68.0745C102.825 65.9598 104.581 63.1886 105.645 59.9538C107.564 54.1409 102.518 53.2719 102.624 46.5417C102.653 44.3595 105.597 40.9702 105.597 40.9702C105.597 40.9702 99.5255 43.2973 99.4583 47.459C99.4008 51.6207 103.641 52.876 103.228 59.4227C102.931 64.1735 101.981 68.0841 101.981 68.0841L101.991 68.0745Z" fill="url(#paint11_linear_32_208)"/>
<path d="M370.378 56.1397C371.088 54.363 372.556 52.0166 373.457 49.2937C375.069 44.3981 370.829 43.6642 370.906 37.9962C370.935 36.1519 373.419 33.3034 373.419 33.3034C373.419 33.3034 368.306 35.2636 368.249 38.7687C368.201 42.2738 371.769 43.3263 371.424 48.8495C371.174 52.8471 370.378 56.1494 370.378 56.1494V56.1397Z" fill="url(#paint12_linear_32_208)"/>
<path d="M254.764 60.8229C253.326 60.456 249.796 58.7952 250.928 53.0981C252.127 47.0632 249.729 40.7868 249.729 40.7868C249.729 40.7868 254.764 48.2702 253.805 51.8912C252.846 55.5121 252.011 58.2834 254.764 60.8229Z" fill="url(#paint13_linear_32_208)"/>
<path d="M512.313 39.097C509.915 38.4983 504.131 35.7463 505.915 26.2256C508.073 14.7157 503.92 5.70667 503.92 5.70667C503.92 5.70667 510.951 15.6813 510.711 24.2171C510.538 30.4645 507.718 34.8773 512.313 39.1066V39.097Z" fill="url(#paint14_linear_32_208)"/>
<path d="M70.7202 44.5623C72.5043 44.1181 76.8016 42.071 75.4683 35.0029C73.8664 26.4573 76.9551 19.7561 76.9551 19.7561C76.9551 19.7561 71.7274 27.1719 71.9096 33.5062C72.0439 38.141 74.135 41.4241 70.7202 44.5623Z" fill="url(#paint15_linear_32_208)"/>
</g>
<g clip-path="url(#clip1_32_208)">
<path d="M570 118.343H1141L1140.91 88.7382C1132.87 84.2289 1129.46 77.7691 1127.11 70.3919C1124.23 61.3829 1121.73 57.3467 1114.32 59.4517C1120.16 60.7649 1122.07 82.5777 1117.58 86.5367C1113.08 90.4956 1105.38 88.912 1101.78 84.113C1098.17 79.314 1098.25 72.4293 1100.75 66.964C1102.12 63.961 1104.19 61.1801 1104.67 57.9164C1105.61 51.389 1100.19 45.943 1095.9 40.9412C1091.61 35.9491 1090.02 22.846 1094.51 18.0276C1088.34 22.0735 1081.55 35.9877 1084.75 42.8145C1085.92 45.3154 1088.16 47.1693 1089.45 49.6123C1093.42 57.115 1087.26 65.8053 1081.51 72.0238C1077.1 76.7841 1070.22 81.9018 1064.9 78.2036C1059.27 74.2929 1062.23 65.6798 1063.15 58.853C1064.38 49.6992 1059.79 38.421 1052.31 33.062C1054.47 38.6141 1058.07 47.7873 1055.83 55.5893C1051.97 69.0594 1042.81 60.34 1045.85 48.7529C1039.34 53.9864 1041.29 63.6327 1040.09 71.9272C1038.9 80.2217 1030.58 89.1631 1024.02 83.9971C1016.28 77.8849 1023.39 67.6593 1021.58 57.9164C1019.82 48.5115 1009.4 52.3739 1010.12 31.6136C1006.05 39.8501 1008.11 48.0094 1007.72 57.2019C1007.24 68.5476 997.387 71.2416 994.413 73.4142C989.723 76.8324 987.478 84.8469 981.704 84.3254C974.96 83.7171 975.891 73.3659 979.248 67.4565C982.615 61.547 984.581 49.1874 978.231 46.8314C980.015 52.7891 973.819 66.3171 968.399 53.3491C966.001 47.6135 966.375 42.4765 967.92 36.4512C969.474 30.4259 968.313 22.6818 964.543 17.7476C966.001 26.5539 965.829 30.8025 961.685 38.141C952.812 53.8319 954.807 66.375 953.129 68.0648C951.45 69.7546 946.347 62.9954 949.464 51.8911C938.673 67.0992 948.985 69.5132 943.968 80.4824C938.05 86.9422 925.321 83.6012 923.288 75.0557C921.906 69.2525 924.832 63.4106 926.098 57.5784C927.364 51.7462 925.714 43.9925 919.911 42.7855C920.928 47.7101 919.125 54.5948 914.127 54.5465C910.578 54.5078 908.592 52.3063 906.789 49.2357C903.672 43.9249 902.876 39.4349 903.672 35.9588C906.549 23.406 901.993 16.6468 896.315 14.0784C903.672 26.9497 895.518 28.4754 896.641 40.7674C898.348 59.3841 890.818 70.4498 886.847 71.5506C882.876 72.6514 879.02 59.8186 881.571 53.5712C873.178 57.9067 876.19 72.3327 873.936 76.5138C871.682 80.6851 861.869 79.9127 859.788 74.3412C857.38 67.891 863.845 62.7927 862.934 55.9562C862.416 52.1325 858.886 49.593 856.536 46.5417C854.186 43.4904 853.083 38.8652 855.721 34.52C849.131 38.7976 850.925 44.176 855.001 54.7975C857.438 61.1415 847.999 68.5959 845.649 68.7987C842.771 69.0401 837.016 58.6599 838.033 51.8331C838.637 47.7776 841.62 43.2876 842.608 37.2623C843.203 33.651 841.966 30.5031 841.812 24.2268C840.21 32.1157 838.963 33.6896 837.256 33.3227C834.867 32.8013 835.232 27.3939 836.047 22.9425C837.169 16.8303 834.417 10.9981 834.618 9.90699C833.102 10.8919 836.143 17.1586 832.939 22.9715C831.414 25.7428 830.503 28.9968 830.896 31.8743C831.548 36.5574 833.083 41.3082 831.98 45.9044C830.887 50.5006 825.534 54.4789 821.544 51.9973C817.688 49.6026 818.359 43.9056 818.983 39.3866C819.606 34.8676 816.834 25.202 812.316 24.8737C814.638 27.3939 815.674 35.9781 812.556 39.8404C810.407 42.5055 807.28 46.1168 805.122 49.7378C801.266 56.2073 800.969 58.7854 799.137 66.1047C797.305 73.4142 789.439 80.859 783.147 76.7648C778.178 73.5301 778.859 66.2012 779.425 60.2724C779.981 54.3437 778.753 49.0233 772.317 45.9816C776.116 54.334 775.204 62.8023 768.442 66.1626C762.965 68.8856 758.303 62.5319 758.744 56.4004C759.185 50.2689 762.677 44.5815 762.6 38.4307C762.514 31.0149 756.5 24.1109 749.2 23.0777C755.368 27.0753 754.783 36.4512 751.79 43.1911C748.797 49.9309 744.059 56.3425 744.183 63.7196C744.318 71.9465 749.651 82.5005 742.735 86.8746C735.829 91.2391 728.27 81.0231 728.702 72.8252C729.133 64.6273 732.673 55.7631 728.558 48.6756C728.702 54.6334 726.438 62.9182 720.577 62.0492C715.944 61.3539 714.611 54.8748 716.472 50.5392C718.333 46.2134 722.054 42.8917 723.848 38.5369C725.642 34.1821 724.088 27.6933 719.426 27.2105C722.927 29.8852 719.915 36.4416 715.513 36.5864C711.11 36.7312 706.812 31.208 706.342 26.8049C705.872 22.4018 708.443 19.2346 710.275 15.2178C711.685 12.1085 711.973 2.32706 709.46 0.0192871C709.067 8.13995 703.426 13.2576 700.347 22.7108C697.758 30.6673 697.355 42.9979 699.897 49.8826C694.266 51.698 688.54 43.7704 691.983 38.9328C686.707 43.249 685.719 53.3588 687.494 57.5012C689.163 61.4119 692.482 64.7721 692.683 69.0304C692.923 74.1191 687.964 78.5705 682.899 78.4546C677.835 78.3388 673.336 74.3315 671.811 69.4746C669.96 63.5844 671.945 57.1922 671.408 51.0317C670.88 44.8712 666.295 35.7367 659.581 36.9437C664.214 44.9871 662.823 49.5254 661.48 53.9768C660.137 58.4282 654.401 61.7208 650.718 58.8917C645.145 54.6141 651.629 45.6726 650.277 38.7397C648.751 30.9183 639.677 32.5985 641.116 12.8038C635.361 23.9081 639.514 33.3034 640.876 42.4958C642.555 53.8416 633.327 61.9236 630.267 60.7842C627.207 59.6352 628.061 51.1283 629.241 46.3775C623.486 49.593 623.294 57.6171 622.776 64.2314C622.268 70.8361 618.507 79.0533 611.975 78.1939C604.771 77.2476 604.052 67.1185 605.126 59.8862C606.201 52.6539 603.784 39.5411 596.522 39.377C602.249 43.2104 603.371 59.6738 596.282 65.448C592.925 68.1807 588.772 62.7154 590.844 49.1971C581.894 61.7498 591.16 71.2416 586.211 72.3714C584.196 72.8252 580.619 73.0183 581.894 62.7154C581.923 62.5126 577.741 68.9918 579.496 75.104C580.331 78.0201 581.184 80.4051 581.252 83.7944C581.434 92.282 575.18 93.9331 570.019 88.7865V118.392L570 118.343Z" fill="url(#paint16_linear_32_208)"/>
<path d="M1141 118.353V96.0671C1141 96.0671 1136.63 92.562 1132.7 89.0665C1127.11 84.0744 1124.23 73.617 1124.23 73.617C1124.23 73.617 1127.9 99.128 1108.17 93.8945C1089.38 88.9024 1090.42 75.0654 1093.78 69.996C1097.14 64.9266 1100.25 60.3401 1098.81 55.2707C1097.38 50.2013 1093.06 44.6491 1093.06 44.6491C1093.06 44.6491 1096.97 52.6539 1094.33 59.1717C1091.7 65.6895 1079.15 89.5397 1065.48 83.2633C1051.81 76.9869 1059.8 65.6122 1060.45 59.1234C1061.24 51.08 1059.49 50.1917 1059.49 50.1917C1059.49 50.1917 1058.15 68.8663 1050.37 69.0208C1046.22 69.098 1044.62 62.503 1044.62 62.503C1044.62 62.503 1044.24 94.7732 1025.43 91.9537C1010.41 89.7038 1017.28 71.9176 1017.04 65.6412C1016.8 59.3648 1012.48 54.7782 1012.48 54.7782C1012.48 54.7782 1015.12 64.4342 1007.93 70.2278C1000.73 76.0213 995.957 79.2175 990.663 85.9187C983.871 94.5318 976.754 90.5053 973.637 85.6773C970.519 80.8493 970.279 74.0901 973.397 68.538C976.514 62.9858 976.514 61.296 976.514 61.296C976.514 61.296 970.279 67.0896 966.922 61.5374C963.565 55.9852 962.845 48.2605 962.845 48.2605C962.845 48.2605 958.529 57.1922 958.769 62.7444C959.009 68.2966 956.611 76.7455 953.493 75.7799C950.376 74.8143 948.937 70.7106 948.937 70.7106C948.937 70.7106 954.692 85.6773 943.421 88.0913C932.151 90.5053 924.285 86.6236 919.681 78.4353C916.247 72.3231 919.364 67.2537 920.563 62.1844C921.762 57.115 921.839 52.6056 921.839 52.6056C921.839 52.6056 917.762 61.5374 911.288 58.6406C904.813 55.7438 900.976 45.6051 900.976 45.6051C900.976 45.6051 903.067 68.9146 891.307 76.1758C884.276 80.521 879.164 70.7009 879.164 70.7009C879.164 70.7009 879.883 83.9778 871.73 85.4262C863.577 86.8746 854.464 80.1155 854.944 74.0805C855.423 68.0455 857.581 62.4933 857.581 62.4933C857.581 62.4933 851.577 73.3563 845.352 73.5977C838.081 73.8777 833.361 61.7691 834.081 55.9756C834.8 50.182 839.117 42.2158 838.877 39.0777C838.877 39.0777 832.441 58.4089 823.529 58.1482C818.091 57.984 816.096 53.3202 815.616 49.9406C815.136 46.561 815.376 44.3884 815.376 44.3884C815.376 44.3884 807.942 48.975 805.544 58.8724C803.146 68.7697 798.801 84.0165 787.559 83.0123C775.895 81.9694 773.65 71.9079 774.849 66.3557C774.849 66.3557 769.574 75.2875 762.38 71.9079C755.186 68.5283 753.469 65.1294 753.987 58.8724C754.37 54.2375 755.493 51.2635 756.96 46.9183C758.562 42.1676 759.07 37.523 757.708 36.1905C756.874 43.4325 753.075 48.9267 750.217 55.5797C747.397 62.1361 751.118 67.3213 752.557 75.2875C753.996 83.2537 751.118 93.3924 740.327 93.151C729.536 92.9096 724.021 85.4262 723.781 79.3913C723.541 73.3563 726.179 64.6659 726.179 64.6659C726.179 64.6659 718.745 68.0455 714.908 64.9073C711.071 61.7691 709.153 55.4928 711.311 51.6304C713.469 47.768 717.546 40.7674 717.546 40.7674C717.546 40.7674 712.635 44.8133 709.153 43.1814C705.681 41.5496 703.637 34.2497 702.918 29.4217C702.918 29.4217 701 48.3667 705.316 56.8156C705.316 56.8156 697.048 58.264 693.93 54.1603C693.93 54.1603 706.036 66.1047 697.882 76.002C689.729 85.8994 679.178 85.1752 672.463 81.3128C665.749 77.4504 664.789 69.9671 665.988 62.7251C667.187 55.4831 665.749 51.3793 665.749 51.3793C665.749 51.3793 662.18 66.9447 653.164 65.6219C647.408 64.7818 644.176 59.5869 644.972 54.4403C645.787 49.1971 646.353 47.7004 646.094 43.1138C645.826 38.2859 645.01 36.4223 645.01 36.4223C645.01 36.4223 645.96 61.6822 631.466 64.4245C627.629 65.1487 626.191 60.8036 626.191 60.8036C626.191 60.8036 625.951 84.702 613.241 82.7709C600.532 80.8397 601.251 63.9417 601.251 63.9417C601.251 63.9417 597.251 77.4601 590.22 66.5971C590.22 66.5971 594.297 75.7703 589.741 77.4601C585.184 79.1499 584.014 76.3303 584.014 77.0545C584.014 77.7787 592.906 95.3526 583.026 97.0037C574.393 98.4521 569.952 96.0381 569.952 96.0381V118.324H1141V118.353Z" fill="url(#paint17_linear_32_208)"/>
<path d="M1141 118.353V104.033C1141 104.033 1134.3 104.516 1133.11 98.4811C1131.91 92.4461 1127.83 87.3767 1127.83 87.3767C1127.83 87.3767 1127.35 107.413 1116.08 105.482C1104.81 103.55 1097.14 100.171 1097.38 92.6875C1097.61 85.2042 1089.94 76.0117 1089.94 76.0117C1089.94 76.0117 1091.86 85.4455 1089.94 90.9977C1088.02 96.5499 1076.03 107.413 1073.39 101.136C1070.76 94.8601 1069.32 91.2391 1065.24 87.3767C1065.24 87.3767 1070.28 98.7225 1063.08 94.8601C1055.89 90.9977 1049.89 90.4087 1052.53 82.2591C1055.17 74.1095 1050.85 70.9713 1050.85 70.9713C1050.85 70.9713 1052.29 79.5458 1049.17 82.2591C1046.06 84.9724 1048.7 89.1534 1044.62 94.667C1040.54 100.181 1029.27 104.526 1027.35 98.2494C1025.43 91.973 1016.08 97.5252 1014.64 90.5246C1013.2 83.524 1013.84 78.5898 1010.33 74.8626C1010.33 74.8626 1013.2 89.0762 1007.69 88.8348C1002.17 88.5934 1006.25 84.702 1006.25 81.3321C1006.25 77.9622 1004.8 76.4655 1004.8 76.4655C1004.8 76.4655 1004.95 81.2742 1002.89 84.2482C1000.73 87.3864 991.622 101.146 979.152 95.8354C966.682 90.5246 963.805 84.9724 966.203 78.9374C968.601 72.9025 966.682 68.5573 965.723 64.9363C964.764 61.3153 964.284 53.5906 964.284 53.5906C964.284 53.5906 962.126 60.1083 963.085 63.9707C964.045 67.8331 965.723 72.6611 963.085 77.489C960.448 82.317 956.85 94.1456 947.738 93.6628C938.625 93.18 939.105 110.078 931.911 105.733C924.717 101.388 932.87 97.5252 926.395 91.4902C919.921 85.4552 911.048 79.1788 914.405 71.9369C917.763 64.6949 913.446 60.5911 913.446 60.5911C913.446 60.5911 914.645 68.0745 911.528 70.7299C908.41 73.3853 912.007 78.696 909.849 81.11C907.691 83.524 903.374 81.5928 905.053 76.282C906.732 70.9713 908.41 70.0057 907.691 67.3503C906.971 64.6949 904.094 54.5561 904.094 54.5561C904.094 54.5561 906.012 64.4535 902.895 69.2815C899.777 74.1095 897.859 78.4546 894.741 87.145C891.624 95.8354 882.272 109.836 882.032 100.422C881.792 91.0074 883.95 91.0074 884.67 85.6966C885.389 80.3858 881.312 77.0062 881.312 77.0062C881.312 77.0062 881.811 86.6912 878.195 88.8348C874.521 91.0074 869.246 93.1027 865.092 97.2838C860.143 102.266 851.826 101.146 853.265 95.3526C854.704 89.559 850.148 89.8004 850.148 84.4896C850.148 79.1788 851.107 75.5579 851.107 75.5579C851.107 75.5579 847.27 79.4202 846.311 83.7654C845.352 88.1106 844.872 98.5197 841.755 95.6229C838.637 92.7261 838.397 89.559 836.239 81.3514C834.081 73.1439 830.004 72.9025 830.004 66.8675C830.004 60.8325 831.923 55.7631 831.923 55.7631C831.923 55.7631 824.968 67.5917 824.249 72.9025C823.53 78.2132 822.81 85.6966 818.733 81.8342C814.657 77.9718 819.453 73.3853 818.494 67.5917C817.534 61.7981 812.738 61.0739 813.458 55.7631C813.458 55.7631 810.897 60.5911 813.458 67.8331C815.271 72.9604 805.305 76.7648 804.825 84.9724C804.345 93.18 788.998 109.354 782.283 99.6977C775.569 90.0418 779.406 87.8692 775.809 83.524C772.212 79.1788 767.176 76.7648 767.176 76.7648C767.176 76.7648 773.411 83.0412 768.615 84.4896C763.819 85.938 758.303 80.3858 758.063 76.0407C757.823 71.6955 759.022 68.0745 759.022 68.0745C759.022 68.0745 753.987 71.6955 755.186 77.7304C756.385 83.7654 757.843 92.5427 755.425 95.594C751.905 100.016 753.191 88.7575 753.191 88.7575C753.191 88.7575 748.471 93.4214 745.114 99.9391C741.757 106.457 728.328 110.078 727.848 101.629C727.368 93.18 719.455 95.3526 718.256 86.4208C717.057 77.489 719.935 70.4885 719.935 70.4885C719.935 70.4885 717.537 70.7299 715.858 74.3509C715.858 74.3509 711.781 71.6955 710.582 66.8675C709.383 62.0395 706.985 52.8664 709.863 48.7626C709.863 48.7626 703.868 54.0733 705.786 62.0395C707.705 70.0057 706.026 85.938 697.633 88.8348C689.24 91.7316 698.832 84.9724 698.832 78.9374C698.832 72.9025 697.153 69.7643 697.153 69.7643C697.153 69.7643 698.592 79.4202 693.077 83.524C687.561 87.6278 686.122 92.4558 678.449 95.8354C670.775 99.2149 665.787 95.2463 665.259 86.9809C664.78 79.4202 659.168 76.8711 659.984 70.7299C660.626 65.9019 664.54 61.7981 664.54 61.7981C664.54 61.7981 655.984 67.0316 655.984 71.8596C655.984 76.6876 658.785 86.4208 652.55 85.4552C646.315 84.4896 643.198 81.8342 645.596 74.3509C647.994 66.8675 645.116 65.4191 644.636 61.3153C644.157 57.2115 644.157 52.8664 644.157 52.8664C644.157 52.8664 640.56 59.1427 641.759 63.2465C642.958 67.3503 643.677 70.7299 641.519 74.5923C639.361 78.4546 639.601 87.145 636.004 85.2138C632.406 83.2826 633.605 80.6272 632.886 76.282C632.167 71.9369 628.57 70.4885 628.57 70.4885C628.57 70.4885 632.886 73.1439 629.289 77.7304C625.692 82.317 616.819 82.5584 617.299 88.5934C617.779 94.6284 611.783 105.733 605.549 100.422C599.314 95.1112 600.992 86.1794 599.553 81.8342C598.115 77.489 593.798 76.0407 594.518 76.7648C595.237 77.489 600.513 82.0756 596.196 88.1106C591.88 94.1456 590.863 92.5716 588.043 98.2494C585.482 103.396 577.751 98.6839 575.257 101.31C571.736 105.009 569.933 104.043 569.933 104.043V118.363C569.933 118.363 1141.56 117.793 1141 118.353Z" fill="url(#paint18_linear_32_208)"/>
<path d="M571.506 105.791C573.252 105.887 573.108 108.359 572.446 109.991C571.401 112.559 573.415 114.954 575.122 114.645C578.47 114.037 580.887 111.179 582.94 108.446C584.052 106.949 585.606 105.26 587.419 105.694C588.666 105.993 589.491 107.249 590.719 107.616C593.213 108.378 595.103 105.289 595.649 102.72C596.196 100.152 596.944 96.9265 599.505 96.4147C598.326 98.1141 599.227 100.277 600.695 101.88C601.146 102.372 601.644 102.807 602.153 103.164C604.359 104.709 607.112 106.08 607.735 108.707C608.321 111.179 607.016 114.578 609.213 115.842C613.961 117.281 619.582 114.162 620.905 109.354C621.414 107.5 621.356 105.53 621.874 103.676C622.747 100.499 625.184 98.0465 627.15 95.4105C629.116 92.7744 630.718 89.3465 629.586 86.2566C631.332 89.6459 629.049 93.7979 629.721 97.5541C630.661 102.855 636.953 105.337 642.296 105.24C644.205 105.202 646.2 104.931 647.754 103.811C650.555 101.793 650.986 97.7086 650.324 94.3C649.672 90.8818 648.214 87.5988 648.205 84.113C648.205 80.6369 650.363 76.7358 653.806 76.5427C651.025 81.1872 656.195 86.4594 657.49 91.7315C657.95 93.5758 657.912 95.536 658.43 97.361C658.957 99.1956 660.291 101.021 662.171 101.233C664.051 101.445 665.94 99.1184 664.818 97.5831C666.833 99.6301 664.55 102.981 664.626 105.897C664.962 105.81 665.298 105.713 665.624 105.569C668.425 104.333 668.079 100.441 669.653 97.8051C673.979 90.5149 665.24 84.4896 666.449 81.6604C668.636 84.4992 677 90.6694 675.082 97.1099C674.535 97.7279 674.343 98.3266 674.401 98.9059C675.648 96.9554 677.902 95.6712 679.849 94.2904C682.209 92.6102 684.482 89.81 683.504 87.0677C686.621 89.501 684.185 94.358 683.6 98.2783C683.206 100.924 684.041 103.801 685.787 105.752C688.367 105.646 690.957 104.41 692.645 102.401C695.273 99.2825 695.868 94.7442 694.813 90.7949C697.556 89.839 699.705 93.6048 699.398 96.5112C699.091 99.4177 697.681 102.401 698.678 105.153C700.05 108.9 704.856 109.75 708.827 109.856C709.45 109.875 710.151 109.856 710.611 109.431C711.359 108.736 710.985 107.519 710.851 106.496C710.381 102.749 714.112 99.7363 717.767 98.877C721.421 98.0176 725.316 98.4618 728.903 97.3513C732.491 96.2505 735.857 92.5909 734.649 89.0182C737.67 89.6362 738.284 93.7496 737.728 96.8009C737.172 99.8522 736.289 103.454 738.399 105.723C740.663 108.156 744.855 107.113 747.291 104.854C749.718 102.594 751.176 99.4467 753.545 97.1099C757.229 93.4793 763.55 90.6501 762.696 85.5324C765.305 88.0333 761.843 91.973 760.346 95.2656C759.397 97.3513 759.329 99.8329 760.164 101.977C761.142 104.497 763.617 106.563 766.303 106.37C768.979 106.177 771.262 103.116 770.168 100.644C771.914 100.741 772.144 103.425 771.118 104.844C770.082 106.264 768.384 107.2 767.732 108.832C766.149 112.811 773.727 109.334 774.37 107.886C776.797 102.382 779.358 98.5487 778.456 95.9222C777.756 93.8752 776.039 92.3109 775.3 90.2735C774.053 86.836 776.394 82.5584 779.943 81.7763C777.42 83.8813 776.691 87.8692 778.303 90.737C779.223 92.3688 780.787 93.6434 781.353 95.4394C781.842 96.994 782.063 98.7321 781.602 100.296C780.327 104.632 780.643 109.721 781.602 108.436C782.725 106.94 784.278 105.25 786.082 105.684C787.329 105.984 788.154 107.239 789.382 107.606C791.875 108.369 793.765 105.269 794.302 102.701C794.849 100.132 795.607 96.9168 798.158 96.405C796.624 98.6162 798.609 101.61 800.806 103.155C801.851 103.888 803.012 104.584 804.019 105.385C804.307 104.777 804.585 104.159 804.758 103.512C805.439 100.924 804.259 98.2493 803.952 95.5939C803.616 92.6971 804.374 89.6845 806.033 87.2898C805.429 89.2403 804.825 91.3357 805.4 93.2862C805.976 95.2463 808.268 96.8202 810.062 95.8643C812.182 94.7346 811.76 91.635 811.29 89.2693C810.695 86.3049 810.551 83.0412 812.086 80.4341C813.026 78.8505 814.513 77.6435 815.453 76.0599C816.134 74.9205 816.412 73.4045 815.99 72.2169C817.391 74.5439 817.822 77.46 817.064 80.0768C816.479 82.0852 815.271 83.8716 814.705 85.8897C814.168 87.8209 814.254 89.8873 814.561 91.8764C815.29 96.6078 817.304 101.127 820.259 104.873C820.326 104.468 820.402 104.053 820.518 103.657C821.4 100.48 823.836 98.0369 825.803 95.3912C827.769 92.7551 829.371 89.3272 828.239 86.2373C829.985 89.6265 827.702 93.7786 828.373 97.5444C828.843 100.209 834.253 106.833 837.294 103.647C837.793 103.116 837.908 102.257 837.563 101.61C837.045 100.654 835.702 100.287 835.385 99.2439C835.184 98.5873 835.472 97.8824 835.759 97.2548C836.153 96.3857 836.536 95.5263 836.93 94.6573C836.632 95.6615 836.767 96.7816 837.285 97.6893C838.042 98.0465 838.963 97.4672 839.289 96.6947C839.615 95.9222 839.5 95.0435 839.395 94.2131C839.309 93.6048 839.222 92.9868 838.886 92.4751C838.599 92.0405 838.148 91.7412 837.803 91.355C836.939 90.3894 836.767 88.941 837.112 87.6857C837.457 86.4304 838.263 85.3586 839.174 84.4413C838.244 86.7587 839.615 89.3948 841.38 91.1522C842.378 92.1468 843.596 93.1317 843.75 94.5318C843.913 96.0574 842.723 97.4189 842.551 98.9445C842.34 100.856 843.711 102.537 844.997 103.956C845.323 103.985 845.649 104.033 845.965 104.082C846.119 103.995 846.263 103.908 846.407 103.801C849.217 101.774 849.639 97.6989 848.987 94.2904C848.335 90.8722 846.867 87.5891 846.858 84.113C846.858 80.6369 849.016 76.7359 852.469 76.5331C849.687 81.1776 854.848 86.4594 856.152 91.7219C856.613 93.5758 856.574 95.5263 857.092 97.361C857.62 99.1956 858.944 101.011 860.824 101.223C862.704 101.436 864.593 99.1087 863.471 97.5734C865.601 99.7363 862.953 103.328 863.318 106.341C863.749 109.904 869.514 111.063 871.269 107.934C872.545 105.655 871.567 102.72 872.382 100.238C873.293 97.4768 876.123 95.9609 878.492 94.2904C880.862 92.6199 883.125 89.81 882.157 87.0774C885.274 89.5107 882.828 94.358 882.252 98.2783C881.677 102.15 883.73 106.515 887.413 107.76C888.286 108.05 889.207 108.108 890.108 107.973C890.089 107.77 890.08 107.558 890.07 107.355C890.032 105.54 890.502 103.753 890.953 101.996C891.375 102.537 892.171 102.759 892.804 102.498C894.53 100.181 893.782 96.9265 892.986 94.1359C892.19 91.355 891.518 88.0526 893.341 85.8125C893.734 85.32 894.233 84.9241 894.674 84.4703C896.027 83.0702 896.794 81.2355 897.542 79.4299C898.569 82.7901 895.365 86.0538 895.346 89.5686C895.346 90.6018 895.614 91.6157 895.902 92.6006C896.449 94.4642 897.063 96.2988 897.753 98.1141C898.271 99.4756 898.837 100.837 899.173 102.257C899.47 103.512 899.576 104.806 899.509 106.1C900.219 105.993 900.919 105.858 901.581 105.569C904.381 104.333 905.446 100.876 905.609 97.8051C905.734 95.3912 905.312 92.7068 906.012 90.3701C906.607 88.3616 908.333 86.9132 908.976 84.9627C909.628 82.9833 908.583 80.7044 909.36 78.7733C909.801 77.6725 910.799 76.8034 911.019 75.6351C911.134 75.0074 911.019 74.3605 910.895 73.7232C910.52 71.7727 910.137 69.8318 909.763 67.891C911.307 69.5904 912.237 71.8499 912.343 74.1481C912.429 76.1758 911.902 78.1842 911.959 80.212C912.017 81.9983 912.544 83.775 913.475 85.291C914.338 86.7008 915.547 87.9174 916.132 89.4721C917.456 92.9772 914.492 94.6476 914.022 97.641C913.59 100.354 915.269 103.493 917.59 104.806C921.139 106.804 925.964 105.53 928.592 102.401C931.22 99.2825 931.815 94.7442 930.76 90.7949C933.503 89.839 935.652 93.6048 935.345 96.5112C935.038 99.4177 933.628 102.401 934.625 105.153C935.997 108.9 940.803 109.75 944.774 109.856C945.397 109.875 946.098 109.856 946.558 109.431C947.306 108.736 946.932 107.519 946.798 106.496C946.328 102.749 950.059 99.7363 953.714 98.877C957.368 98.0176 961.263 98.4618 964.85 97.3513C968.438 96.2505 971.805 92.5909 970.596 89.0182C973.617 89.6362 974.231 93.7496 973.675 96.8009C973.119 99.8522 972.236 103.454 974.346 105.723C976.61 108.156 980.802 107.113 983.238 104.854C985.665 102.594 987.123 99.4467 989.492 97.1099C993.176 93.4793 999.497 90.6501 998.643 85.5324C1001.25 88.0333 997.79 91.973 996.293 95.2656C995.344 97.3513 995.276 99.8329 996.111 101.977C997.089 104.497 999.564 106.563 1002.25 106.37C1004.93 106.177 1007.21 103.116 1006.12 100.644C1007.86 100.741 1008.09 103.425 1007.07 104.844C1006.03 106.264 1004.33 107.2 1003.68 108.832C1002.41 112.009 1006.39 115.253 1009.73 114.645C1013.08 114.037 1015.5 111.169 1017.54 108.436C1018.66 106.94 1020.22 105.25 1022.02 105.684C1023.27 105.984 1024.09 107.239 1025.32 107.606C1027.81 108.369 1029.7 105.269 1030.24 102.701C1030.79 100.132 1031.54 96.9168 1034.1 96.405C1032.56 98.6162 1034.55 101.61 1036.74 103.155C1038.94 104.69 1041.7 106.071 1042.33 108.687C1042.91 111.159 1041.61 114.558 1043.8 115.823C1048.55 117.262 1054.16 114.153 1055.5 109.344C1056 107.49 1055.95 105.511 1056.46 103.657C1057.35 100.48 1059.78 98.0369 1061.75 95.3912C1063.72 92.7551 1065.32 89.3272 1064.19 86.2373C1065.93 89.6265 1063.65 93.7786 1064.32 97.5444C1065.26 102.846 1071.55 105.327 1076.9 105.231C1078.8 105.192 1080.8 104.922 1082.34 103.801C1085.15 101.774 1085.58 97.6989 1084.92 94.2904C1084.27 90.8722 1082.8 87.5891 1082.79 84.113C1082.79 80.6369 1084.95 76.7359 1088.41 76.5331C1085.62 81.1776 1090.79 86.4594 1092.09 91.7219C1092.55 93.5758 1092.51 95.5263 1093.03 97.361C1093.56 99.1956 1094.88 101.011 1096.76 101.223C1098.64 101.436 1100.53 99.1087 1099.41 97.5734C1101.54 99.7363 1098.89 103.328 1099.26 106.341C1099.69 109.904 1105.45 111.063 1107.21 107.934C1108.48 105.655 1107.5 102.72 1108.32 100.238C1109.23 97.4768 1112.06 95.9609 1114.43 94.2904C1116.79 92.6102 1119.06 89.81 1118.09 87.0774C1121.21 89.5107 1118.78 94.358 1118.19 98.2783C1117.61 102.15 1119.67 106.515 1123.35 107.76C1127.03 109.006 1128.8 106.65 1130.04 101.368C1134.06 112.82 1141 110.551 1141 110.551V119H570V110.551C571.439 109.412 572.245 107.471 571.506 105.791Z" fill="url(#paint19_linear_32_208)"/>
<path d="M815.961 72.2362C815.712 71.8113 815.434 71.4058 815.117 71.0292C815.53 71.3478 815.798 71.763 815.961 72.2362Z" fill="url(#paint20_linear_32_208)"/>
<path d="M1051.12 36.9051C1051.12 36.9051 1046.26 32.164 1048.95 28.514C1051.65 24.8641 1047.32 21.4362 1047.32 21.4362C1047.32 21.4362 1047.52 23.9564 1046.62 28.1085C1045.72 32.2605 1051.13 36.9051 1051.13 36.9051H1051.12Z" fill="url(#paint21_linear_32_208)"/>
<path d="M896.689 18.6843C896.689 18.6843 891.825 13.9432 894.521 10.2933C897.216 6.64332 892.89 3.21545 892.89 3.21545C892.89 3.21545 893.092 5.73566 892.19 9.88772C891.288 14.0398 896.698 18.6843 896.698 18.6843H896.689Z" fill="url(#paint22_linear_32_208)"/>
<path d="M986.538 50.2303C986.538 50.2303 981.675 45.4796 984.37 41.8393C987.066 38.1893 982.74 34.7615 982.74 34.7615C982.74 34.7615 982.941 37.2817 982.039 41.4337C981.138 45.5858 986.548 50.2303 986.548 50.2303H986.538Z" fill="url(#paint23_linear_32_208)"/>
<path d="M691.609 33.1682C691.609 33.1682 696.472 28.4272 693.777 24.7772C691.082 21.1273 695.408 17.6994 695.408 17.6994C695.408 17.6994 695.206 20.2196 696.108 24.3717C697.01 28.5237 691.6 33.1682 691.6 33.1682H691.609Z" fill="url(#paint24_linear_32_208)"/>
<path d="M913.638 44.0312C913.638 44.0312 918.501 39.2901 915.806 35.6401C913.11 31.9902 917.436 28.5623 917.436 28.5623C917.436 28.5623 917.235 31.0825 918.137 35.2346C919.038 39.3866 913.628 44.0312 913.628 44.0312H913.638Z" fill="url(#paint25_linear_32_208)"/>
<path d="M855.769 37.9093C855.769 37.9093 860.632 33.1683 857.936 29.5183C855.241 25.8684 859.567 22.4405 859.567 22.4405C859.567 22.4405 859.366 24.9607 860.267 29.1128C861.169 33.2648 855.759 37.9093 855.759 37.9093H855.769Z" fill="url(#paint26_linear_32_208)"/>
<path d="M1038.01 68.0745C1037.17 65.9598 1035.42 63.1886 1034.35 59.9538C1032.44 54.1409 1037.48 53.2719 1037.38 46.5417C1037.35 44.3595 1034.4 40.9702 1034.4 40.9702C1034.4 40.9702 1040.47 43.2973 1040.54 47.459C1040.6 51.6207 1036.36 52.876 1036.77 59.4227C1037.07 64.1735 1038.02 68.0841 1038.02 68.0841L1038.01 68.0745Z" fill="url(#paint27_linear_32_208)"/>
<path d="M769.622 56.1397C768.912 54.363 767.444 52.0166 766.543 49.2937C764.931 44.3981 769.171 43.6642 769.094 37.9962C769.065 36.1519 766.581 33.3034 766.581 33.3034C766.581 33.3034 771.694 35.2636 771.751 38.7687C771.799 42.2738 768.231 43.3263 768.576 48.8495C768.826 52.8471 769.622 56.1494 769.622 56.1494V56.1397Z" fill="url(#paint28_linear_32_208)"/>
<path d="M885.236 60.8229C886.674 60.456 890.204 58.7952 889.072 53.0981C887.873 47.0632 890.271 40.7868 890.271 40.7868C890.271 40.7868 885.236 48.2702 886.195 51.8912C887.154 55.5121 887.989 58.2834 885.236 60.8229Z" fill="url(#paint29_linear_32_208)"/>
<path d="M627.687 39.097C630.085 38.4983 635.869 35.7463 634.085 26.2256C631.927 14.7157 636.08 5.70667 636.08 5.70667C636.08 5.70667 629.049 15.6813 629.289 24.2171C629.462 30.4645 632.282 34.8773 627.687 39.1066V39.097Z" fill="url(#paint30_linear_32_208)"/>
<path d="M1069.28 44.5623C1067.5 44.1181 1063.2 42.071 1064.53 35.0029C1066.13 26.4573 1063.04 19.7561 1063.04 19.7561C1063.04 19.7561 1068.27 27.1719 1068.09 33.5062C1067.96 38.141 1065.86 41.4241 1069.28 44.5623Z" fill="url(#paint31_linear_32_208)"/>
</g>
<defs>
<linearGradient id="paint0_linear_32_208" x1="284.5" y1="118.343" x2="284.5" y2="-2.62405e-05" gradientUnits="userSpaceOnUse">
<stop stop-color="#F8D409"/>
<stop offset="0.24" stop-color="#F38F12"/>
<stop offset="0.67" stop-color="#EC1C24"/>
<stop offset="1" stop-color="#EC1C24"/>
</linearGradient>
<linearGradient id="paint1_linear_32_208" x1="284.5" y1="118.353" x2="284.5" y2="31.4591" gradientUnits="userSpaceOnUse">
<stop stop-color="#F8D409"/>
<stop offset="0.14" stop-color="#F7CC0A"/>
<stop offset="0.35" stop-color="#F4B60F"/>
<stop offset="0.61" stop-color="#F09316"/>
<stop offset="0.9" stop-color="#EB6220"/>
<stop offset="1" stop-color="#E95024"/>
</linearGradient>
<linearGradient id="paint2_linear_32_208" x1="284.5" y1="118.353" x2="284.5" y2="50.3365" gradientUnits="userSpaceOnUse">
<stop stop-color="#FCF396"/>
<stop offset="0.36" stop-color="#FFE500"/>
<stop offset="0.58" stop-color="#FCCF09"/>
<stop offset="1" stop-color="#F8A91A"/>
</linearGradient>
<linearGradient id="paint3_linear_32_208" x1="284.5" y1="119" x2="284.5" y2="73.588" gradientUnits="userSpaceOnUse">
<stop stop-color="white"/>
<stop offset="0.17" stop-color="#FEFBEE"/>
<stop offset="0.51" stop-color="#FBF2C3"/>
<stop offset="0.98" stop-color="#F8E47D"/>
<stop offset="1" stop-color="#F8E47A"/>
</linearGradient>
<linearGradient id="paint4_linear_32_208" x1="324.461" y1="72.2362" x2="324.461" y2="71.1644" gradientUnits="userSpaceOnUse">
<stop stop-color="white"/>
<stop offset="0.17" stop-color="#FEFBEE"/>
<stop offset="0.51" stop-color="#FBF2C3"/>
<stop offset="0.98" stop-color="#F8E47D"/>
<stop offset="1" stop-color="#F8E47A"/>
</linearGradient>
<linearGradient id="paint5_linear_32_208" x1="93.095" y1="20.8679" x2="88.1171" y2="46.571" gradientUnits="userSpaceOnUse">
<stop stop-color="#EC1C24"/>
<stop offset="0.64" stop-color="#F38F12"/>
<stop offset="1" stop-color="#F8D409"/>
</linearGradient>
<linearGradient id="paint6_linear_32_208" x1="247.522" y1="2.65268" x2="242.544" y2="28.3558" gradientUnits="userSpaceOnUse">
<stop stop-color="#EC1C24"/>
<stop offset="0.64" stop-color="#F38F12"/>
<stop offset="1" stop-color="#F8D409"/>
</linearGradient>
<linearGradient id="paint7_linear_32_208" x1="157.673" y1="34.2006" x2="152.695" y2="59.9037" gradientUnits="userSpaceOnUse">
<stop stop-color="#EC1C24"/>
<stop offset="0.64" stop-color="#F38F12"/>
<stop offset="1" stop-color="#F8D409"/>
</linearGradient>
<linearGradient id="paint8_linear_32_208" x1="444.184" y1="17.2175" x2="449.162" y2="42.9206" gradientUnits="userSpaceOnUse">
<stop stop-color="#EC1C24"/>
<stop offset="0.64" stop-color="#F38F12"/>
<stop offset="1" stop-color="#F8D409"/>
</linearGradient>
<linearGradient id="paint9_linear_32_208" x1="222.153" y1="28.0836" x2="227.13" y2="53.7868" gradientUnits="userSpaceOnUse">
<stop stop-color="#EC1C24"/>
<stop offset="0.64" stop-color="#F38F12"/>
<stop offset="1" stop-color="#F8D409"/>
</linearGradient>
<linearGradient id="paint10_linear_32_208" x1="280.022" y1="21.9697" x2="285" y2="47.6728" gradientUnits="userSpaceOnUse">
<stop stop-color="#EC1C24"/>
<stop offset="0.64" stop-color="#F38F12"/>
<stop offset="1" stop-color="#F8D409"/>
</linearGradient>
<linearGradient id="paint11_linear_32_208" x1="99.8478" y1="46.2174" x2="116.297" y2="80.1695" gradientUnits="userSpaceOnUse">
<stop stop-color="#EC1C24"/>
<stop offset="0.64" stop-color="#F38F12"/>
<stop offset="1" stop-color="#F8D409"/>
</linearGradient>
<linearGradient id="paint12_linear_32_208" x1="368.564" y1="37.7341" x2="382.423" y2="66.34" gradientUnits="userSpaceOnUse">
<stop stop-color="#EC1C24"/>
<stop offset="0.64" stop-color="#F38F12"/>
<stop offset="1" stop-color="#F8D409"/>
</linearGradient>
<linearGradient id="paint13_linear_32_208" x1="252.251" y1="42.7373" x2="252.251" y2="75.8186" gradientUnits="userSpaceOnUse">
<stop stop-color="#EC1C24"/>
<stop offset="0.64" stop-color="#F38F12"/>
<stop offset="1" stop-color="#F8D409"/>
</linearGradient>
<linearGradient id="paint14_linear_32_208" x1="508.121" y1="8.95107" x2="508.121" y2="64.0866" gradientUnits="userSpaceOnUse">
<stop stop-color="#EC1C24"/>
<stop offset="0.64" stop-color="#F38F12"/>
<stop offset="1" stop-color="#F8D409"/>
</linearGradient>
<linearGradient id="paint15_linear_32_208" x1="73.8377" y1="22.1604" x2="73.8377" y2="63.121" gradientUnits="userSpaceOnUse">
<stop stop-color="#EC1C24"/>
<stop offset="0.64" stop-color="#F38F12"/>
<stop offset="1" stop-color="#F8D409"/>
</linearGradient>
<linearGradient id="paint16_linear_32_208" x1="855.5" y1="118.343" x2="855.5" y2="-2.62405e-05" gradientUnits="userSpaceOnUse">
<stop stop-color="#F8D409"/>
<stop offset="0.24" stop-color="#F38F12"/>
<stop offset="0.67" stop-color="#EC1C24"/>
<stop offset="1" stop-color="#EC1C24"/>
</linearGradient>
<linearGradient id="paint17_linear_32_208" x1="855.5" y1="118.353" x2="855.5" y2="31.4591" gradientUnits="userSpaceOnUse">
<stop stop-color="#F8D409"/>
<stop offset="0.14" stop-color="#F7CC0A"/>
<stop offset="0.35" stop-color="#F4B60F"/>
<stop offset="0.61" stop-color="#F09316"/>
<stop offset="0.9" stop-color="#EB6220"/>
<stop offset="1" stop-color="#E95024"/>
</linearGradient>
<linearGradient id="paint18_linear_32_208" x1="855.5" y1="118.353" x2="855.5" y2="50.3365" gradientUnits="userSpaceOnUse">
<stop stop-color="#FCF396"/>
<stop offset="0.36" stop-color="#FFE500"/>
<stop offset="0.58" stop-color="#FCCF09"/>
<stop offset="1" stop-color="#F8A91A"/>
</linearGradient>
<linearGradient id="paint19_linear_32_208" x1="855.5" y1="119" x2="855.5" y2="73.588" gradientUnits="userSpaceOnUse">
<stop stop-color="white"/>
<stop offset="0.17" stop-color="#FEFBEE"/>
<stop offset="0.51" stop-color="#FBF2C3"/>
<stop offset="0.98" stop-color="#F8E47D"/>
<stop offset="1" stop-color="#F8E47A"/>
</linearGradient>
<linearGradient id="paint20_linear_32_208" x1="815.539" y1="72.2362" x2="815.539" y2="71.1644" gradientUnits="userSpaceOnUse">
<stop stop-color="white"/>
<stop offset="0.17" stop-color="#FEFBEE"/>
<stop offset="0.51" stop-color="#FBF2C3"/>
<stop offset="0.98" stop-color="#F8E47D"/>
<stop offset="1" stop-color="#F8E47A"/>
</linearGradient>
<linearGradient id="paint21_linear_32_208" x1="1046.91" y1="20.8679" x2="1051.88" y2="46.571" gradientUnits="userSpaceOnUse">
<stop stop-color="#EC1C24"/>
<stop offset="0.64" stop-color="#F38F12"/>
<stop offset="1" stop-color="#F8D409"/>
</linearGradient>
<linearGradient id="paint22_linear_32_208" x1="892.478" y1="2.65268" x2="897.456" y2="28.3558" gradientUnits="userSpaceOnUse">
<stop stop-color="#EC1C24"/>
<stop offset="0.64" stop-color="#F38F12"/>
<stop offset="1" stop-color="#F8D409"/>
</linearGradient>
<linearGradient id="paint23_linear_32_208" x1="982.327" y1="34.2006" x2="987.305" y2="59.9037" gradientUnits="userSpaceOnUse">
<stop stop-color="#EC1C24"/>
<stop offset="0.64" stop-color="#F38F12"/>
<stop offset="1" stop-color="#F8D409"/>
</linearGradient>
<linearGradient id="paint24_linear_32_208" x1="695.816" y1="17.2175" x2="690.838" y2="42.9206" gradientUnits="userSpaceOnUse">
<stop stop-color="#EC1C24"/>
<stop offset="0.64" stop-color="#F38F12"/>
<stop offset="1" stop-color="#F8D409"/>
</linearGradient>
<linearGradient id="paint25_linear_32_208" x1="917.847" y1="28.0836" x2="912.87" y2="53.7868" gradientUnits="userSpaceOnUse">
<stop stop-color="#EC1C24"/>
<stop offset="0.64" stop-color="#F38F12"/>
<stop offset="1" stop-color="#F8D409"/>
</linearGradient>
<linearGradient id="paint26_linear_32_208" x1="859.978" y1="21.9697" x2="855" y2="47.6728" gradientUnits="userSpaceOnUse">
<stop stop-color="#EC1C24"/>
<stop offset="0.64" stop-color="#F38F12"/>
<stop offset="1" stop-color="#F8D409"/>
</linearGradient>
<linearGradient id="paint27_linear_32_208" x1="1040.15" y1="46.2174" x2="1023.7" y2="80.1695" gradientUnits="userSpaceOnUse">
<stop stop-color="#EC1C24"/>
<stop offset="0.64" stop-color="#F38F12"/>
<stop offset="1" stop-color="#F8D409"/>
</linearGradient>
<linearGradient id="paint28_linear_32_208" x1="771.436" y1="37.7341" x2="757.577" y2="66.34" gradientUnits="userSpaceOnUse">
<stop stop-color="#EC1C24"/>
<stop offset="0.64" stop-color="#F38F12"/>
<stop offset="1" stop-color="#F8D409"/>
</linearGradient>
<linearGradient id="paint29_linear_32_208" x1="887.749" y1="42.7373" x2="887.749" y2="75.8186" gradientUnits="userSpaceOnUse">
<stop stop-color="#EC1C24"/>
<stop offset="0.64" stop-color="#F38F12"/>
<stop offset="1" stop-color="#F8D409"/>
</linearGradient>
<linearGradient id="paint30_linear_32_208" x1="631.879" y1="8.95107" x2="631.879" y2="64.0866" gradientUnits="userSpaceOnUse">
<stop stop-color="#EC1C24"/>
<stop offset="0.64" stop-color="#F38F12"/>
<stop offset="1" stop-color="#F8D409"/>
</linearGradient>
<linearGradient id="paint31_linear_32_208" x1="1066.16" y1="22.1604" x2="1066.16" y2="63.121" gradientUnits="userSpaceOnUse">
<stop stop-color="#EC1C24"/>
<stop offset="0.64" stop-color="#F38F12"/>
<stop offset="1" stop-color="#F8D409"/>
</linearGradient>
<clipPath id="clip0_32_208">
<rect width="571" height="119" fill="white" transform="translate(-1)"/>
</clipPath>
<clipPath id="clip1_32_208">
<rect width="571" height="119" fill="white" transform="matrix(-1 0 0 1 1141 0)"/>
</clipPath>
</defs>
</svg>
