<svg width="213" height="213" viewBox="0 0 213 213" fill="none" xmlns="http://www.w3.org/2000/svg">
<g clip-path="url(#clip0_1_5702)">
<path d="M106.503 187.273C151.111 187.273 187.272 151.111 187.272 106.504C187.272 61.896 151.111 25.7344 106.503 25.7344C61.8955 25.7344 25.7339 61.896 25.7339 106.504C25.7339 151.111 61.8955 187.273 106.503 187.273Z" fill="white"/>
<path d="M211.932 121.651L204.827 113.54L213 106.491L204.827 99.46L211.932 91.3426L203.421 85.9023H203.415L202.844 85.5339L203.268 84.8769L208.714 76.4831L198.89 72.0253L200.498 68.5315L203.403 62.2377L193.038 59.2474L196.102 48.901L185.418 47.4089L186.99 36.7433L176.201 36.7801L176.244 25.9978L165.572 27.5636L164.08 16.8795L153.74 19.9373L150.75 9.57869L140.95 14.0979L136.504 4.26122L127.454 10.1375L121.645 1.04985L113.527 8.15415L106.485 -0.0185547L99.4417 8.15415L91.3242 1.04985L85.5155 10.1375L76.4648 4.26122L72.0192 14.0979L62.2255 9.57869L59.229 19.9373L48.8888 16.8795L47.3967 27.5636L36.7249 25.9978L36.7679 36.7801L25.9856 36.7371L27.5513 47.4089L16.8673 48.8949L19.9313 59.2351L9.56649 62.2377L12.4708 68.5315L14.0796 72.0253L4.25515 76.4831L7.12266 80.898L9.70157 84.8707L10.1253 85.5216L9.54807 85.89L1.03765 91.3426L8.14194 99.46L-0.0307617 106.491L8.14194 113.54L1.03765 121.651L9.54807 127.091L10.1253 127.46L9.70157 128.117L7.11652 132.096L4.25515 136.51L14.0796 140.968L12.4708 144.462L9.56649 150.756L19.9313 153.746L16.8673 164.093L27.5513 165.579L25.9794 176.25L36.7679 176.207L36.7249 187.002L47.3967 185.424L48.8888 196.108L59.229 193.05L62.2193 203.415L72.0192 198.896L76.4648 208.726L85.5155 202.85L91.3242 211.944L99.4417 204.839L106.485 213.012L113.527 204.839L121.645 211.944L127.454 202.85L136.504 208.732L140.95 198.896L150.744 203.415L153.74 193.056L164.08 196.114L165.572 185.436L176.244 187.002L176.201 176.22L186.984 176.256L185.418 165.579L196.102 164.099L193.038 153.746L203.403 150.756L200.498 144.462L198.89 140.968L208.714 136.51L203.268 128.123L202.844 127.46L203.415 127.097L211.932 121.651ZM200.228 131.003L200.492 131.402L202.66 134.736L199.031 136.382L196.065 137.726L193.425 138.924L195.979 144.456L196.004 144.505L197.668 148.134L193.836 149.233L187.923 150.94L189.673 156.841L190.803 160.672L186.855 161.219L180.751 162.072L181.648 168.17L182.225 172.118L178.24 172.106L172.075 172.081L172.1 178.246L172.112 182.231L168.17 181.648L162.066 180.745L161.219 186.848L160.666 190.797L156.841 189.667L150.94 187.923L149.227 193.842L148.128 197.661L144.511 196.004L138.918 193.425L136.375 199.031L134.736 202.666L131.396 200.486L126.232 197.146L122.916 202.328L120.767 205.687L117.764 203.065L113.128 199.012L109.113 203.679L106.503 206.706L103.893 203.679L99.8776 199.012L95.2356 203.065L92.2391 205.687L90.09 202.328L86.7743 197.146L81.6103 200.486L78.27 202.666L76.6244 199.031L74.0885 193.425L68.4947 196.004L64.8781 197.661L63.7728 193.842L62.0658 187.923L56.165 189.667L52.3396 190.797L51.787 186.848L50.9335 180.745L44.8362 181.648L40.888 182.231L40.9065 178.234L40.931 172.075L34.7662 172.099L30.775 172.118L31.3583 168.17L32.2548 162.072L26.1514 161.213L22.2032 160.666L23.333 156.841L25.083 150.94L19.1637 149.233L15.3383 148.128L17.0024 144.505L17.0269 144.456L19.5813 138.917L16.941 137.72L13.9752 136.382L10.3463 134.736L12.0594 132.096L12.5077 131.402L12.7779 130.99L15.8603 126.232L11.6726 123.548L10.6717 122.91L7.31301 120.767L9.9349 117.77L13.6989 113.478L13.9998 113.134L12.2559 111.624L9.33316 109.1L6.306 106.491L9.33316 103.893L12.2498 101.376L13.9998 99.8653L13.6989 99.5214L9.9349 95.2232L7.31301 92.2206L10.6717 90.0777L11.6665 89.4391L15.8603 86.7619L12.7717 81.991L12.5077 81.5918L12.0594 80.898L10.3463 78.2515L13.9752 76.6182L16.941 75.2735L19.5813 74.07L17.0269 68.5376L17.0024 68.4885L15.3383 64.8596L19.1699 63.7605L25.083 62.0535L23.333 56.1527L22.2032 52.3211L26.1514 51.7747L32.2548 50.9212L31.3583 44.8177L30.7811 40.8818H34.7662L40.931 40.9125L40.9065 34.7538L40.8942 30.7626L44.8362 31.346L50.9397 32.2424L51.787 26.1329L52.3396 22.197L56.165 23.3206L62.0658 25.0767L63.779 19.1514L64.8781 15.326L68.4947 16.99L74.0885 19.5628L76.6306 13.9629L78.27 10.3278L81.6103 12.5076L86.7743 15.8479L90.09 10.6655L92.2391 7.30679L95.2356 9.92869L99.8776 13.9813L103.893 9.31466L106.503 6.29365L109.113 9.31466L113.128 13.9813L117.77 9.92869L120.767 7.30679L122.916 10.6655L126.232 15.8479L131.396 12.5076L134.736 10.3278L136.382 13.9629L138.918 19.5628L144.511 16.99L148.128 15.3321L149.233 19.1514L150.94 25.0767L156.841 23.3206L160.666 22.197L161.219 26.139L162.072 32.2424L168.17 31.346L172.118 30.7626L172.1 34.7538L172.075 40.9125L178.24 40.8941L182.231 40.8818L181.648 44.8239L180.751 50.9212L186.855 51.7808L190.803 52.3273L189.673 56.1527L187.923 62.0535L193.842 63.7605L197.668 64.8657L196.004 68.4885L195.979 68.5376L193.425 74.0761L196.065 75.2735L199.031 76.6182L202.66 78.2515L200.492 81.5918L200.222 82.0032L197.14 86.7619L201.327 89.4452L202.328 90.0838L205.687 92.2268L203.065 95.2232L199.301 99.5214L199 99.8653L200.75 101.376H200.756L203.667 103.893L206.694 106.491L203.667 109.1L200.738 111.63L199 113.134L199.301 113.472L203.065 117.77L205.687 120.767L202.328 122.916L201.333 123.554L197.14 126.232L200.228 131.003Z" fill="#96650F"/>
<path d="M209.942 121.369L202.973 113.411L210.992 106.497L202.973 99.6013L209.942 91.6374L201.591 86.3015H201.585L201.026 85.9392L201.444 85.2945L206.786 77.0604L197.146 72.6885L198.724 69.2622L201.573 63.0851L191.405 60.1501L194.413 50.0002L183.932 48.5388L185.473 38.0758L174.887 38.1126L174.93 27.5329L164.461 29.068L163 18.5866L152.856 21.5891L149.921 11.427L140.305 15.8603L135.946 6.20776L127.067 11.9735L121.369 3.0578L113.405 10.027L106.497 2.00781L99.5891 10.027L91.6252 3.0578L85.927 11.9735L77.0481 6.20776L72.6886 15.8603L63.079 11.427L60.1378 21.5891L49.9941 18.5866L48.5327 29.068L38.0635 27.5329L38.1065 38.1126L27.5268 38.0696L29.0619 48.5388L18.5805 49.9941L21.5892 60.1378L11.4209 63.0851L14.27 69.2622L15.848 72.6885L6.2078 77.0604L9.02004 81.3893L11.5498 85.2884L11.9674 85.9269L11.4025 86.2892L3.0517 91.6374L10.0209 99.6013L2.00171 106.497L10.0209 113.411L3.0517 121.369L11.4025 126.705L11.9674 127.067L11.5498 127.712L9.0139 131.617L6.2078 135.946L15.848 140.318L14.27 143.744L11.4209 149.921L21.5892 152.856L18.5805 163.006L29.0619 164.461L27.5207 174.93L38.1065 174.887L38.0635 185.479L48.5327 183.932L49.9941 194.413L60.1378 191.411L63.0729 201.579L72.6886 197.146L77.0481 206.792L85.927 201.026L91.6252 209.948L99.5891 202.979L106.497 210.998L113.405 202.979L121.369 209.948L127.067 201.026L135.946 206.798L140.305 197.146L149.915 201.579L152.856 191.417L163 194.419L164.461 183.944L174.93 185.479L174.887 174.9L185.467 174.936L183.932 164.461L194.413 163.012L191.405 152.856L201.573 149.921L198.724 143.744L197.146 140.318L206.786 135.946L201.444 127.718L201.026 127.067L201.585 126.711L209.942 121.369ZM198.46 130.542L198.718 130.935L200.842 134.208L197.281 135.823L194.37 137.143L191.779 138.316L194.284 143.744L194.309 143.793L195.942 147.354L192.184 148.435L186.382 150.111L188.101 155.902L189.213 159.659L185.338 160.194L179.351 161.029L180.229 167.009L180.794 170.884L176.883 170.872L170.835 170.847L170.859 176.895L170.872 180.806L167.003 180.235L161.016 179.351L160.187 185.338L159.647 189.213L155.895 188.101L150.105 186.388L148.423 192.197L147.342 195.942L143.793 194.315L138.304 191.785L135.811 197.287L134.202 200.854L130.923 198.718L125.857 195.439L122.603 200.523L120.497 203.82L117.549 201.247L112.999 197.269L109.057 201.849L106.497 204.821L103.936 201.849L99.9944 197.269L95.4383 201.247L92.4971 203.82L90.391 200.523L87.1366 195.439L82.0709 198.718L78.792 200.854L77.1771 197.287L74.6903 191.785L69.2009 194.315L65.6518 195.942L64.565 192.197L62.8887 186.388L57.0984 188.101L53.3467 189.213L52.8063 185.338L51.9713 179.351L45.9906 180.235L42.1161 180.806L42.1345 176.883L42.1591 170.841L36.1109 170.865L32.1934 170.884L32.7645 167.009L33.6425 161.029L27.6558 160.187L23.7813 159.653L24.8927 155.902L26.6119 150.111L20.8032 148.435L17.0515 147.348L18.6848 143.793L18.7094 143.744L21.2146 138.31L18.6234 137.137L15.7129 135.823L12.1516 134.208L13.834 131.617L14.2761 130.935L14.5402 130.53L17.5673 125.863L13.4595 123.229L12.477 122.603L9.17969 120.503L11.7525 117.562L15.4428 113.349L15.7375 113.012L14.0244 111.532L11.1569 109.057L8.18497 106.497L11.1569 103.949L14.0182 101.48L15.7375 100L15.4428 99.6627L11.7525 95.4444L9.17969 92.497L12.477 90.3971L13.4533 89.7708L17.5673 87.1427L14.534 82.4638L14.2761 82.0709L13.834 81.3893L12.1516 78.792L15.7129 77.1893L18.6234 75.8692L21.2146 74.6902L18.7094 69.2622L18.6848 69.2131L17.0515 65.6518L20.8094 64.5711L26.6119 62.8948L24.8927 57.1045L23.7813 53.3467L27.6558 52.8125L33.6425 51.9774L32.7645 45.9906L32.1996 42.1284H36.1109L42.1591 42.1591L42.1345 36.117L42.1223 32.1995L45.9906 32.7706L51.9774 33.6486L52.8063 27.6557L53.3467 23.7935L57.0984 24.8988L62.8887 26.6242L64.5711 20.8093L65.6518 17.0576L69.2009 18.6909L74.6903 21.2146L77.1832 15.719L78.792 12.1515L82.0709 14.2884L87.1366 17.5673L90.391 12.4831L92.4971 9.18579L95.4383 11.7586L99.9944 15.7375L103.936 11.1568L106.497 8.19107L109.057 11.1568L112.999 15.7375L117.556 11.7586L120.497 9.18579L122.603 12.4831L125.857 17.5673L130.923 14.2884L134.202 12.1515L135.817 15.719L138.304 21.2146L143.793 18.6909L147.342 17.0638L148.429 20.8093L150.105 26.6242L155.895 24.8988L159.647 23.7935L160.187 27.6619L161.023 33.6486L167.003 32.7706L170.878 32.1995L170.859 36.117L170.835 42.1591L176.883 42.1407L180.8 42.1284L180.229 45.9967L179.351 51.9774L185.338 52.8186L189.213 53.3528L188.101 57.1045L186.382 62.8948L192.191 64.5711L195.942 65.6579L194.309 69.2131L194.284 69.2622L191.779 74.6964L194.37 75.8692L197.281 77.1893L200.842 78.792L198.718 82.0709L198.454 82.4761L195.426 87.1427L199.534 89.7769L200.517 90.4032L203.814 92.5032L201.241 95.4444L197.551 99.6627L197.256 100L198.976 101.48H198.982L201.837 103.949L204.809 106.497L201.837 109.057L198.963 111.538L197.256 113.012L197.551 113.343L201.241 117.562L203.814 120.503L200.517 122.609L199.54 123.235L195.426 125.863L198.46 130.542Z" fill="white"/>
<path d="M106.503 158.695C135.328 158.695 158.695 135.328 158.695 106.503C158.695 77.6779 135.328 54.3105 106.503 54.3105C77.678 54.3105 54.3107 77.6779 54.3107 106.503C54.3107 135.328 77.678 158.695 106.503 158.695Z" fill="#161414" stroke="#BC863F" stroke-width="4" stroke-miterlimit="10" stroke-linecap="round"/>
<path d="M98.1462 79.2341V78.6385C98.1462 77.0482 97.8023 75.685 96.1997 75.685C94.5971 75.685 94.0813 76.8639 94.0813 79.6516V84.4349C95.1866 82.9305 96.7831 82.1814 98.9076 82.1814C103.433 82.1814 105.103 85.7735 105.103 90.4217V96.4269C105.103 101.849 102.936 106.11 96.1506 106.11C89.3656 106.11 87.3086 101.474 87.3086 96.3102V80.8858C87.3086 74.942 89.1261 70.1526 96.2059 70.1526C103.771 70.1526 104.6 75.6298 104.6 78.9332V79.2464H98.1523L98.1462 79.2341ZM98.2506 97.3602V91.3059C98.2506 89.212 97.8023 88.0454 96.2181 88.0454C94.7629 88.0454 94.0813 88.9357 94.0813 91.3427V97.3602C94.0813 99.2207 94.4927 100.658 96.1813 100.658C97.8699 100.658 98.2506 99.3251 98.2506 97.3602ZM125.685 79.6578V96.2672C125.685 101.72 123.733 106.147 116.592 106.147C109.45 106.147 107.891 101.566 107.891 96.3041V79.9586C107.891 73.6342 111.004 70.1465 116.819 70.1465C122.634 70.1465 125.685 73.6587 125.685 79.6578ZM114.664 79.1051V97.0962C114.664 99.1286 115.235 100.295 116.764 100.295C118.292 100.295 118.833 99.0488 118.833 96.9918V79.0069C118.833 77.2569 118.354 76.0104 116.764 76.0104C115.265 76.0104 114.664 77.1771 114.664 79.1174V79.1051ZM78.7859 130.548C78.7859 134.466 78.2947 137.321 73.2412 137.321C72.4921 137.321 71.5588 137.241 70.9939 137.155V133.011C71.2641 133.035 71.6816 133.072 72.1176 133.072C73.4193 133.072 73.7939 132.642 73.7939 131.095V111.035H78.792V130.548H78.7859ZM94.8918 117.973V130.008C94.8918 135.154 92.4664 137.364 87.9349 137.364C83.4034 137.364 81.4201 135.104 81.4201 130.057V117.838C81.4201 112.828 84.1709 110.642 88.1682 110.642C92.1656 110.642 94.898 112.791 94.898 117.973H94.8918ZM86.4612 117.414V130.677C86.4612 132.28 87.0077 133.115 88.1253 133.115C89.2428 133.115 89.8138 132.36 89.8138 130.653V117.377C89.8138 115.756 89.3656 114.928 88.113 114.928C87.0507 114.928 86.4612 115.695 86.4612 117.414ZM102.463 111.035V130.794C102.463 132.304 102.923 133.115 104.059 133.115C105.263 133.115 105.637 132.194 105.637 130.794V111.035H110.691V130.469C110.691 135.068 108.579 137.34 103.986 137.34C99.3927 137.34 97.4401 135.141 97.4401 130.426V111.035H102.463ZM118.649 125.698V136.977H113.663V111.028H120.135C124.482 111.028 126.631 112.938 126.631 117.476V118.409C126.631 122.105 125.151 123.205 124.04 123.733C125.655 124.512 126.41 125.698 126.41 129.32C126.41 131.826 126.373 135.614 126.588 136.977H121.762C121.436 135.804 121.461 132.427 121.461 129.118C121.461 126.201 121.129 125.704 119.226 125.704H118.636L118.649 125.698ZM118.661 121.768H119.281C120.945 121.768 121.627 121.24 121.627 118.827V117.574C121.627 115.83 121.277 114.964 119.441 114.964H118.661V121.768ZM133.342 128.983V130.782C133.342 132.489 133.766 133.281 134.902 133.281C136.038 133.281 136.32 132.108 136.32 130.88C136.32 128.43 135.86 127.724 133.213 125.507C130.291 123.033 128.786 121.565 128.786 117.746C128.786 113.927 130.014 110.623 134.926 110.623C140.146 110.623 140.913 114.185 140.913 117.15V118.642H136.204V117.089C136.204 115.517 135.946 114.737 134.957 114.737C134.036 114.737 133.741 115.529 133.741 116.997C133.741 118.556 134.024 119.33 136.173 121.006C139.986 124.003 141.355 125.685 141.355 129.959C141.355 134.233 139.968 137.37 134.81 137.37C129.652 137.37 128.448 134.386 128.448 130.542V128.989H133.336L133.342 128.983Z" fill="url(#paint0_linear_1_5702)"/>
<path d="M192.51 112.668L199.669 106.491L192.51 100.326L195.457 96.967L198.73 93.2276L197.84 92.6566L190.785 88.1496L195.918 80.2348L187.328 76.3541L190.594 69.256L191.263 67.7885L182.207 65.1666L184.89 56.1281L175.544 54.8263L176.914 45.487L167.47 45.5177L167.507 36.0862L158.174 37.4555L156.872 28.11L147.821 30.7872L145.205 21.7241L136.646 25.6662L132.765 17.0882L124.856 22.2092L119.766 14.2698L112.662 20.4776L106.503 13.3242L100.338 20.4776L93.234 14.2698L88.156 22.2092L80.2411 17.0882L76.3543 25.6662L67.7948 21.7241L65.179 30.781L56.1283 28.1039L54.8265 37.4555L45.4933 36.0801L45.5302 45.5177L36.0864 45.487L37.4618 54.8263L28.1102 56.1219L30.7935 65.1666L21.7366 67.7823L22.4059 69.256L25.6787 76.3541L17.0884 80.2348L17.8314 81.383L22.2155 88.1496L15.1665 92.6566L14.2639 93.2276L17.5489 96.9732L20.484 100.326L13.3306 106.491L20.484 112.668L17.5489 116.033L14.27 119.772L15.1665 120.343L22.2155 124.85L17.8314 131.61L17.0884 132.759L25.6787 136.646L22.3998 143.738L21.7305 145.205L30.7935 147.821L28.1102 156.865L37.4496 158.161L36.0864 167.5L45.5302 167.476L45.4933 176.907L54.8265 175.538L56.1283 184.883L65.179 182.206L67.7948 191.269L76.3543 187.327L80.235 195.911L88.1437 190.784L93.234 198.724L100.338 192.516L106.503 199.675L112.662 192.516L119.766 198.724L124.85 190.784L132.759 195.911L136.646 187.315L145.205 191.269L147.821 182.212L156.872 184.883L158.174 175.538L167.507 176.907L167.47 167.476L176.914 167.513L175.544 158.173L184.89 156.872L182.207 147.821L191.263 145.205L190.594 143.738L187.328 136.646L195.918 132.759L190.785 124.85L197.84 120.337L198.73 119.772L195.445 116.026L192.51 112.668ZM106.503 158.695C77.6806 158.695 54.3108 135.319 54.3108 106.503C54.3108 77.6866 77.6806 54.3106 106.503 54.3106C135.326 54.3106 158.695 77.6743 158.695 106.503C158.695 135.331 135.326 158.695 106.503 158.695Z" fill="url(#paint1_linear_1_5702)"/>
<path d="M36.5899 126.146L37.075 127.969C37.1241 128.16 36.9952 128.356 36.8049 128.405L35.6075 128.725C35.5338 128.743 35.3619 128.725 35.2943 128.688L32.39 126.496L31.9233 124.752C31.8742 124.562 32.0032 124.365 32.1935 124.316L44.382 121.068C44.5723 121.019 44.7811 121.123 44.8363 121.313L45.3951 123.419C45.4504 123.628 45.3214 123.825 45.1311 123.874L36.5899 126.152V126.146Z" fill="white"/>
<path d="M37.4618 119.533C33.1882 120.018 30.4189 118.495 30.0566 115.315C29.6944 112.134 32.0461 110.022 36.3197 109.537C40.5934 109.045 43.3626 110.574 43.7249 113.755C44.0872 116.936 41.7355 119.048 37.4618 119.533ZM36.682 112.68C34.1215 112.975 32.7522 113.804 32.8935 114.995C33.0285 116.186 34.5513 116.684 37.1057 116.395C39.6846 116.1 41.0293 115.272 40.8942 114.086C40.7591 112.895 39.2548 112.392 36.682 112.687V112.68Z" fill="white"/>
<path d="M36.2584 106.687C31.9663 106.393 29.5225 104.397 29.7435 101.198C29.9646 98.0049 32.654 96.3532 36.9461 96.6479C41.2381 96.9426 43.682 98.9382 43.4609 102.137C43.2399 105.336 40.5504 106.982 36.2584 106.687ZM36.7312 99.8102C34.1645 99.6321 32.6663 100.203 32.5865 101.4C32.5067 102.598 33.9128 103.359 36.4794 103.537C39.0645 103.715 40.5443 103.144 40.6241 101.953C40.7039 100.762 39.3224 99.9944 36.7312 99.8163V99.8102Z" fill="white"/>
<path d="M32.697 93.3626C31.2724 92.988 30.4496 91.5512 30.8242 90.1267C31.1926 88.7206 32.6233 87.8548 34.0478 88.2293C35.4724 88.6039 36.3075 90.0653 35.939 91.4714C35.5645 92.8959 34.1215 93.7372 32.697 93.3626ZM32.6171 84.8706C32.5066 84.7601 32.4882 84.5943 32.5128 84.496L32.8935 83.0531C32.9671 82.7706 33.2803 82.6662 33.4891 82.8627L44.3635 92.7363C44.4249 92.8161 44.4924 93.0126 44.4679 93.1108L44.0995 94.517C44.0258 94.7994 43.7126 94.9038 43.5039 94.7073L32.6233 84.8706H32.6171ZM33.5443 90.1512C33.2005 90.0591 32.8198 90.2863 32.7277 90.6302C32.6356 90.9925 32.8566 91.3732 33.2005 91.4653C33.5627 91.5574 33.9434 91.3363 34.0417 90.974C34.1338 90.6302 33.9066 90.2495 33.5443 90.1512ZM41.0539 86.0127C41.4284 84.5881 42.8714 83.7285 44.3021 84.1031C45.7082 84.4715 46.5617 85.939 46.1872 87.3636C45.8187 88.7697 44.3512 89.6232 42.9451 89.2548C41.5205 88.8802 40.6855 87.4188 41.0539 86.0127ZM44.2652 86.8601C44.3635 86.4978 44.1363 86.1171 43.7924 86.025C43.4302 85.9329 43.0495 86.1539 42.9512 86.5162C42.8591 86.86 43.0863 87.2407 43.4486 87.339C43.7924 87.4311 44.1731 87.2039 44.2652 86.8601Z" fill="white"/>
<path d="M37.4004 72.5839C37.2285 72.4857 37.1548 72.2585 37.2592 72.0927L39.6785 67.9542C41.5942 64.6814 45.8187 63.5577 49.0792 65.4612C52.3704 67.3831 53.4634 71.6199 51.5538 74.8927L49.1345 79.0312C49.0362 79.2032 48.8029 79.2461 48.6371 79.1479L37.4127 72.5839H37.4004ZM48.938 73.5909C50.0555 71.6752 49.3617 69.4033 47.4275 68.2735C45.5117 67.1559 43.1907 67.6594 42.067 69.5752L41.1153 71.2024L47.9863 75.2181L48.938 73.5909Z" fill="white"/>
<path d="M46.2424 58.7683C46.0951 58.6393 46.0644 58.406 46.2117 58.2402L51.5967 52.1429C51.738 51.9833 51.9774 51.9771 52.1248 52.1122L53.7274 53.5306C53.8748 53.6596 53.9055 53.8929 53.7581 54.0587L50.1538 58.1358L51.9774 59.7507L54.9432 56.392C55.0721 56.2446 55.3239 56.2262 55.4713 56.3613L57.0739 57.7797C57.2335 57.9209 57.2397 58.1604 57.1046 58.3077L54.1388 61.6665L56.1283 63.4226L59.7326 59.3455C59.8738 59.1858 60.1133 59.1858 60.2607 59.3147L61.8633 60.7332C62.0106 60.8621 62.0414 61.0954 61.894 61.2612L56.509 67.3585C56.3677 67.5182 56.1283 67.5182 55.9809 67.3892L46.2301 58.7805L46.2424 58.7683Z" fill="white"/>
<path d="M59.2414 45.806C59.1309 45.6463 59.1616 45.4068 59.3396 45.2902L64.1905 41.9806C66.1369 40.6543 68.8018 41.1394 70.122 43.0735C71.1412 44.5656 70.9693 46.4445 69.9439 47.9735L74.9789 50.577C75.2368 50.712 75.2982 51.0498 75.0219 51.234L72.8667 52.7076C72.7377 52.7936 72.5842 52.7813 72.5105 52.7383L67.4202 49.9138L66.3027 50.6752L69.1272 54.8137C69.2378 54.9734 69.1886 55.219 69.029 55.3295L67.1009 56.6497C66.9229 56.7725 66.6895 56.7111 66.5852 56.5514L59.2537 45.806H59.2414ZM67.2913 46.9726C67.9544 46.5182 68.1018 45.5112 67.6413 44.8297C67.1808 44.1481 66.229 43.9823 65.5659 44.4367L63.165 46.0761L64.8904 48.6059L67.2913 46.9665V46.9726Z" fill="white"/>
<path d="M71.9518 37.818C71.8719 37.6399 71.9518 37.4128 72.1421 37.3268L79.5903 34.054C79.7868 33.9681 80.0017 34.0663 80.0815 34.2444L80.9411 36.2031C81.021 36.3812 80.9411 36.6084 80.7508 36.6943L75.7649 38.8803L76.7473 41.1092L80.849 39.3101C81.0271 39.2303 81.2604 39.3224 81.3403 39.5005L82.1999 41.4592C82.2858 41.6557 82.1876 41.8706 82.0095 41.9504L77.9078 43.7495L78.9762 46.1811L83.9622 43.9951C84.1586 43.9092 84.3735 44.0074 84.4534 44.1855L85.313 46.1442C85.3928 46.3223 85.313 46.5495 85.1227 46.6354L77.6745 49.9082C77.478 49.9942 77.2631 49.8959 77.1833 49.7179L71.9518 37.8119V37.818Z" fill="white"/>
<path d="M85.9332 32.0525C85.921 31.8744 86.0622 31.7086 86.2218 31.6779L86.5288 31.6165C86.6271 31.5981 86.8113 31.6411 86.8973 31.7455L93.0253 39.1814H93.0621L95.8805 29.9587C95.9173 29.8297 96.0708 29.7192 96.1691 29.7008L96.4761 29.6394C96.6296 29.6087 96.8322 29.7069 96.8814 29.8788L101.634 42.3989C101.72 42.6445 101.585 42.8471 101.351 42.8962L99.0796 43.3506C98.9076 43.3874 98.6989 43.2646 98.6498 43.1173L96.5989 37.3331H96.5621L94.5665 44.2287C94.5296 44.3576 94.3761 44.4866 94.284 44.505L93.934 44.5725C93.8174 44.5971 93.6454 44.5295 93.5656 44.4252L89.0648 38.8252H89.0279L89.3657 44.9594C89.3779 45.119 89.2551 45.3032 89.0586 45.3401L86.7867 45.7944C86.5534 45.8436 86.3508 45.7023 86.3385 45.4444L85.9394 32.0586L85.9332 32.0525Z" fill="white"/>
<path d="M103.857 29.6574C103.857 29.4609 104.022 29.2889 104.237 29.2951L108.818 29.3933C111.139 29.4424 113.006 31.0758 112.963 33.1389C112.932 34.6494 111.55 35.7239 110.617 36.1968C111.649 36.6511 113.221 37.6459 113.184 39.4572C113.135 41.6555 111.157 43.2089 108.818 43.1598L103.943 43.0554C103.728 43.0554 103.574 42.8712 103.58 42.6747L103.857 29.6696V29.6574ZM108.486 40.3292C109.254 40.3476 109.917 39.7335 109.929 38.923C109.948 38.1371 109.113 37.5292 108.345 37.5108L106.755 37.4739L106.693 40.2862L108.48 40.323L108.486 40.3292ZM108.345 34.9626C109.094 34.981 109.733 34.3608 109.751 33.581C109.77 32.795 109.15 32.2301 108.407 32.2179L106.872 32.1872L106.81 34.938L108.345 34.9687V34.9626Z" fill="white"/>
<path d="M123.997 31.1553C127.828 32.0395 130.174 35.8342 129.29 39.6596C128.405 43.485 124.635 45.8244 120.81 44.9341C116.985 44.0437 114.645 40.2982 115.529 36.4728C116.413 32.6474 120.171 30.265 124.003 31.1553H123.997ZM121.516 41.8762C123.622 42.3613 125.741 41.0411 126.226 38.9534C126.711 36.8473 125.391 34.7044 123.291 34.2193C121.203 33.7342 119.078 35.0789 118.593 37.185C118.108 39.2727 119.435 41.3911 121.522 41.8762H121.516Z" fill="white"/>
<path d="M134.926 34.9566C135.012 34.7786 135.246 34.6987 135.424 34.7847L137.597 35.8408C137.794 35.9329 137.855 36.1601 137.769 36.3382L134.294 43.4978C133.692 44.7381 134.134 46.1688 135.387 46.7767C136.658 47.3968 138.076 46.8565 138.678 45.6223L142.147 38.4627C142.233 38.2847 142.454 38.1926 142.645 38.2908L144.818 39.3469C144.996 39.4329 145.076 39.6662 144.99 39.8443L141.447 47.1451C140.146 49.8345 136.799 50.9643 134.005 49.6073C131.23 48.2626 130.063 44.9469 131.365 42.2574L134.908 34.9566H134.926Z" fill="white"/>
<path d="M149.436 42.6688C149.559 42.5153 149.786 42.4662 149.958 42.6013L154.612 46.1872C156.479 47.624 156.841 50.3134 155.417 52.1617C154.311 53.5923 152.475 54.016 150.701 53.5125L149.786 59.1063C149.737 59.3949 149.436 59.5607 149.172 59.3519L147.103 57.7555C146.98 57.6572 146.943 57.5098 146.961 57.4239L148.073 51.7073L146.998 50.8783L143.94 54.845C143.818 54.9985 143.572 55.0353 143.418 54.9125L141.564 53.488C141.392 53.359 141.374 53.1195 141.497 52.966L149.436 42.6627V42.6688ZM150.824 50.688C151.462 51.1792 152.463 51.0073 152.967 50.3564C153.47 49.7056 153.335 48.7538 152.696 48.2626L150.394 46.488L148.521 48.9135L150.824 50.688Z" fill="white"/>
<path d="M151.868 59.3886L153.697 58.9772C153.992 58.9219 154.213 59.2228 154.232 59.3947C154.256 59.4807 154.434 61.2245 155.306 62.1885C155.834 62.7718 156.583 62.8639 157.087 62.4034C157.701 61.8508 157.701 60.9175 157.197 59.5728C156.559 57.8719 156.11 55.4158 157.854 53.8316C159.297 52.5237 161.766 52.3272 163.798 54.5684C165.167 56.0851 165.456 57.9456 165.53 58.6763C165.585 58.9403 165.296 59.1491 165.143 59.1859L163.35 59.4622C163.098 59.5052 162.73 59.364 162.711 59.1368C162.662 58.9403 162.502 57.1535 161.698 56.2632C161.225 55.7412 160.519 55.6614 160.126 56.0175C159.586 56.5026 159.574 57.3131 160.151 58.885C160.728 60.4324 161.477 63.042 159.494 64.835C157.996 66.192 155.306 66.2718 153.366 64.1288C151.653 62.2376 151.487 60.4754 151.518 59.8368C151.53 59.5605 151.548 59.4622 151.861 59.3947L151.868 59.3886Z" fill="white"/>
<path d="M168.987 61.7161C169.152 61.6117 169.386 61.6485 169.502 61.8266L173.887 68.6791C174.003 68.8633 173.936 69.0905 173.776 69.1949L171.971 70.3493C171.805 70.4537 171.572 70.4168 171.455 70.2388L168.52 65.6581L166.469 66.9721L168.882 70.7423C168.987 70.9081 168.937 71.1537 168.772 71.2581L166.966 72.4124C166.782 72.5291 166.555 72.4677 166.451 72.3019L164.038 68.5318L161.802 69.9625L164.738 74.5431C164.854 74.7273 164.787 74.9545 164.627 75.0589L162.822 76.2133C162.656 76.3176 162.423 76.2808 162.306 76.1027L157.922 69.2502C157.805 69.066 157.873 68.8388 158.032 68.7344L168.987 61.7222V61.7161Z" fill="white"/>
<path d="M176.852 74.6164C177.024 74.5735 177.215 74.6901 177.27 74.8375L177.38 75.1322C177.417 75.2243 177.405 75.4147 177.313 75.5129L170.927 82.7277L170.939 82.7646L180.481 84.1032C180.61 84.1155 180.745 84.2567 180.782 84.3488L180.893 84.6435C180.948 84.7909 180.88 85.0058 180.721 85.0856L169.097 91.7417C168.87 91.8645 168.643 91.7601 168.563 91.539L167.758 89.3654C167.697 89.1996 167.783 88.9785 167.924 88.9049L173.315 85.976L173.303 85.9391L166.187 85.0426C166.058 85.0304 165.904 84.8953 165.867 84.8032L165.744 84.4716C165.701 84.3611 165.744 84.1769 165.83 84.0848L170.657 78.7673L170.644 78.7304L164.645 80.0199C164.492 80.0567 164.289 79.9646 164.222 79.7804L163.417 77.6068C163.337 77.3857 163.442 77.1585 163.694 77.1094L176.852 74.6226V74.6164Z" fill="white"/>
<path d="M181.998 91.9632C182.194 91.9386 182.391 92.0676 182.422 92.2825L183.527 100.345C183.558 100.56 183.404 100.738 183.207 100.768L181.083 101.057C180.886 101.081 180.69 100.953 180.665 100.738L179.922 95.3465L177.509 95.678L178.117 100.117C178.142 100.314 177.994 100.51 177.798 100.535L175.673 100.824C175.458 100.854 175.28 100.701 175.25 100.504L174.642 96.0649L172.014 96.4272L172.751 101.818C172.781 102.033 172.628 102.211 172.431 102.236L170.307 102.524C170.11 102.549 169.914 102.42 169.883 102.205L168.778 94.143C168.747 93.9281 168.901 93.75 169.097 93.7254L181.986 91.957L181.998 91.9632Z" fill="white"/>
<path d="M183.699 105.391C183.895 105.404 184.043 105.588 184.03 105.784L184 106.276L175.986 113.638V113.656L182.95 114.086C183.146 114.098 183.312 114.264 183.3 114.479L183.152 116.831C183.14 117.027 182.95 117.193 182.759 117.181L169.564 116.364C169.367 116.352 169.22 116.168 169.232 115.971L169.251 115.658C169.251 115.597 169.324 115.449 169.367 115.406L177.632 108.142V108.124L170.319 107.676C170.123 107.663 169.957 107.497 169.969 107.283L170.11 104.949C170.123 104.753 170.307 104.587 170.503 104.599L183.705 105.391H183.699Z" fill="white"/>
<path d="M178.811 123.487L179.511 120.767C179.566 120.558 179.775 120.448 179.965 120.497L182.041 121.031C182.231 121.08 182.366 121.277 182.311 121.486L180.143 129.935C180.088 130.143 179.879 130.254 179.689 130.205L177.614 129.67C177.423 129.621 177.288 129.425 177.343 129.216L178.043 126.496L167.881 123.886C167.691 123.837 167.562 123.622 167.611 123.432L168.194 121.148C168.244 120.957 168.458 120.828 168.649 120.878L178.811 123.487Z" fill="white"/>
<path d="M66.8614 155.429C68.1325 156.485 69.0781 158.174 69.3605 159.924C69.4097 160.145 69.2746 160.335 69.0535 160.353L66.8 160.623C66.5913 160.623 66.4255 160.488 66.3825 160.298C66.2474 159.291 65.7501 158.542 65.0071 157.922C63.3615 156.546 60.8747 156.829 59.4931 158.487C58.1177 160.132 58.3326 162.607 59.9721 163.982C60.408 164.351 60.9115 164.664 61.5194 164.86L62.2501 163.988L61.2984 163.196C61.1326 163.055 61.1142 162.834 61.237 162.687L62.4834 161.195C62.6247 161.029 62.8457 161.01 63.0115 161.145L66.0448 163.675C66.1922 163.804 66.2044 164.037 66.0755 164.191L62.7045 168.262C62.6431 168.336 62.4773 168.409 62.379 168.403C62.379 168.403 60.0089 168.084 57.8168 166.26C54.8142 163.755 54.3905 159.352 56.9081 156.338C59.4256 153.323 63.8589 152.924 66.8614 155.429Z" fill="#845F1E"/>
<path d="M66.6527 172.014L78.0429 162.902C78.1473 162.822 78.313 162.797 78.4358 162.859L78.6139 162.945C78.7367 163.006 78.8165 163.153 78.8165 163.288L78.4481 177.872C78.442 178.154 78.1841 178.314 77.9201 178.179L75.9675 177.208C75.6543 177.049 75.5622 176.877 75.5683 176.466L75.6236 174.759L70.8342 172.382L69.5017 173.475C69.3114 173.641 69.0105 173.758 68.6605 173.586L66.7263 172.628C66.4623 172.499 66.4316 172.198 66.6527 172.02V172.014ZM75.7587 171.836L75.8631 168.268H75.8446L73.0815 170.509L75.7587 171.836Z" fill="#845F1E"/>
<path d="M87.1304 167.194C87.1734 167.003 87.3699 166.868 87.5787 166.917L93.2953 168.262C95.5917 168.802 97.0286 171.099 96.4944 173.371C96.083 175.133 94.5847 176.269 92.7611 176.551L94.2409 182.029C94.3146 182.311 94.1119 182.581 93.7865 182.508L91.2444 181.912C91.0909 181.875 90.9988 181.752 90.9804 181.666L89.6234 175.999L88.3032 175.692L87.155 180.567C87.112 180.758 86.8971 180.893 86.7068 180.844L84.4287 180.309C84.2199 180.26 84.1033 180.051 84.1524 179.861L87.1243 167.2L87.1304 167.194ZM91.7111 173.917C92.497 174.101 93.3383 173.53 93.5225 172.726C93.7067 171.922 93.1909 171.117 92.4111 170.933L89.5804 170.27L88.8804 173.254L91.7111 173.917Z" fill="#845F1E"/>
<path d="M99.5953 182.851L105.822 169.662C105.883 169.546 106.018 169.447 106.153 169.447H106.35C106.485 169.447 106.626 169.546 106.681 169.668L112.76 182.925C112.877 183.183 112.717 183.435 112.422 183.435L110.243 183.423C109.886 183.423 109.733 183.3 109.555 182.925L108.855 181.366L103.507 181.335L102.788 182.901C102.69 183.134 102.469 183.373 102.076 183.367L99.9146 183.355C99.6199 183.355 99.4664 183.097 99.583 182.839L99.5953 182.851ZM107.694 178.688L106.221 175.44H106.202L104.71 178.676L107.7 178.695L107.694 178.688Z" fill="#845F1E"/>
<path d="M115.984 169.373C115.935 169.183 116.07 168.987 116.26 168.937L116.739 168.821L126.17 174.255H126.189L124.506 167.482C124.457 167.292 124.568 167.083 124.783 167.028L127.073 166.457C127.263 166.408 127.478 166.537 127.527 166.727L130.714 179.56C130.763 179.75 130.628 179.947 130.438 179.996L130.131 180.07C130.076 180.082 129.91 180.07 129.861 180.033L120.448 174.329H120.429L122.198 181.445C122.247 181.636 122.136 181.844 121.921 181.9L119.649 182.464C119.459 182.514 119.244 182.385 119.195 182.194L115.99 169.361L115.984 169.373Z" fill="#845F1E"/>
<path d="M134.576 166.285L132.065 167.538C131.869 167.636 131.654 167.544 131.562 167.372L130.604 165.456C130.518 165.278 130.579 165.051 130.769 164.953L138.574 161.054C138.77 160.956 138.985 161.048 139.077 161.22L140.035 163.135C140.121 163.313 140.06 163.541 139.869 163.639L137.358 164.892L142.049 174.28C142.135 174.458 142.055 174.691 141.883 174.784L139.771 175.84C139.593 175.926 139.36 175.846 139.268 175.674L134.576 166.285Z" fill="#845F1E"/>
<path d="M141.214 159.709C141.103 159.549 141.146 159.304 141.306 159.187L143.246 157.848C143.406 157.738 143.652 157.781 143.768 157.947L151.143 168.661C151.253 168.821 151.21 169.067 151.045 169.177L149.104 170.516C148.945 170.626 148.699 170.583 148.588 170.417L141.214 159.703V159.709Z" fill="#845F1E"/>
<path d="M147.127 155.49C146.992 155.349 146.986 155.11 147.146 154.962L153.065 149.387C153.224 149.24 153.458 149.258 153.593 149.405L155.06 150.965C155.195 151.106 155.202 151.346 155.042 151.493L151.081 155.226L152.752 157.001L156.012 153.931C156.153 153.796 156.405 153.802 156.54 153.949L158.008 155.509C158.155 155.668 158.137 155.902 157.989 156.037L154.729 159.107L156.546 161.035L160.507 157.302C160.666 157.154 160.9 157.173 161.035 157.32L162.502 158.88C162.637 159.021 162.644 159.26 162.484 159.408L156.565 164.983C156.405 165.131 156.172 165.112 156.037 164.965L147.115 155.503L147.127 155.49Z" fill="#845F1E"/>
<path d="M53.1011 140.643L49.945 140.164L48.5328 137.149C48.4284 136.922 48.06 136.922 47.9495 137.149L46.5372 140.164L43.3811 140.643C43.1232 140.68 43.0188 140.999 43.203 141.183L45.4933 143.535L44.953 146.857C44.91 147.121 45.1925 147.317 45.4258 147.188L48.2442 145.629L51.0626 147.188C51.2959 147.317 51.5784 147.121 51.5354 146.857L50.995 143.535L53.2853 141.183C53.4696 140.999 53.3652 140.68 53.1073 140.643H53.1011Z" fill="white"/>
<path d="M171.191 140.643L168.035 140.164L166.622 137.149C166.518 136.922 166.15 136.922 166.039 137.149L164.627 140.164L161.471 140.643C161.213 140.68 161.109 140.999 161.293 141.183L163.583 143.535L163.043 146.857C163 147.121 163.282 147.317 163.516 147.188L166.334 145.629L169.152 147.188C169.386 147.317 169.668 147.121 169.625 146.857L169.085 143.535L171.375 141.183C171.559 140.999 171.455 140.68 171.197 140.643H171.191Z" fill="white"/>
</g>
<defs>
<linearGradient id="paint0_linear_1_5702" x1="70.9878" y1="70" x2="70.9878" y2="155.5" gradientUnits="userSpaceOnUse">
<stop stop-color="#F3E98D"/>
<stop offset="1" stop-color="#CA9801"/>
</linearGradient>
<linearGradient id="paint1_linear_1_5702" x1="106.503" y1="199.675" x2="106.503" y2="13.3242" gradientUnits="userSpaceOnUse">
<stop stop-color="#F3E98D"/>
<stop offset="1" stop-color="#CA9801"/>
</linearGradient>
<clipPath id="clip0_1_5702">
<rect width="213" height="213" fill="white"/>
</clipPath>
</defs>
</svg>
